<?xml version="1.0" encoding="UTF-8"?>
<svg width="1170px" height="738px" viewBox="0 0 1170 738" version="1.1" xmlns="http://www.w3.org/2000/svg" xmlns:xlink="http://www.w3.org/1999/xlink">
    <!-- Generator: Sketch 58 (84663) - https://sketch.com -->
    <title>Map_Schweiz</title>
    <desc>Created with Sketch.</desc>
    <g id="Page-1" stroke="none" stroke-width="1" fill="none" fill-rule="evenodd">
        <g id="Map_Schweiz" fill="#C1C1FC" fill-rule="nonzero">
            <path d="M785.857221,736.934178 C784.482221,736.470778 781.219721,735.803778 778.607221,735.451778 C773.553481,734.770978 773.008491,733.891278 774.971381,729.583178 C775.831921,727.694478 775.733771,726.033478 774.540221,722.286178 C773.690291,719.617678 772.706141,715.561978 772.353211,713.273478 C772.000281,710.984978 770.849281,708.332178 769.795431,707.378478 C768.741581,706.424778 767.131621,702.979578 766.217741,699.722578 C765.238931,696.234078 763.693431,693.196678 762.456681,692.330678 C754.206471,686.554078 746.105281,681.934378 744.225541,681.934378 C743.001541,681.934378 741.332071,681.266378 740.515621,680.449978 C739.203001,679.137378 739.248361,678.248078 740.907411,672.768678 C742.371861,667.931878 743.926401,665.414678 747.990051,661.299878 L753.196431,656.028078 L752.007031,650.713278 C751.352871,647.790078 749.933161,643.944078 748.852131,642.166478 L746.886621,638.934378 L738.339801,638.934378 C732.937301,638.934378 728.448331,638.372578 726.137981,637.407278 C721.033991,635.274678 719.741171,636.824078 719.095561,645.847378 C718.816671,649.745278 718.238951,652.934378 717.811751,652.934378 C716.694171,652.934378 712.082951,647.264078 711.513641,645.189778 C711.248661,644.224378 710.745651,641.738778 710.395841,639.666378 C709.619591,635.067478 704.709171,631.406778 697.51335,630.062478 C691.26845,628.895778 687.86202,625.707378 687.84191,621.010108 C687.82251,616.472938 687.25029,615.655678 682.35687,613.175788 C679.63909,611.798478 676.85219,608.950018 673.66453,604.291458 C667.36174,595.080338 662.53574,590.783318 655.35722,587.990828 C652.05722,586.707098 648.85801,585.156748 648.24786,584.545598 C647.63771,583.934448 646.36831,579.322278 645.42698,574.296318 L643.71545,565.158228 L646.65292,559.296318 C650.653,551.313878 651.13502,546.729748 650.29488,524.660168 C649.57881,505.849948 649.54189,505.613058 646.85836,502.609668 L644.14569,499.573658 L638.35326,501.221468 C630.31381,503.508488 629.41542,502.578298 632.41745,495.075498 C633.87574,491.430868 634.30937,491.132098 639.05437,490.502648 C643.51845,489.910468 644.76256,489.171978 649.36419,484.382808 C652.71498,480.895438 655.73591,478.708678 657.76278,478.303308 C661.62564,477.530738 662.41099,476.160698 663.90331,467.591158 C664.65694,463.263508 665.65212,460.594328 666.71367,460.053488 C670.31707,458.217608 675.32322,457.974508 680.25492,459.395908 C683.06119,460.204718 687.98385,461.630668 691.19418,462.564688 C696.54077,464.120238 697.25623,464.129938 699.71049,462.680168 C701.853081,461.414508 704.490101,461.190638 712.873531,461.562678 C718.639561,461.818558 725.014141,462.518818 727.039261,463.118798 C732.193831,464.645948 752.427631,462.660378 758.333711,460.047838 C762.377061,458.259278 762.895961,457.608978 764.395381,452.451148 C766.441881,445.411418 769.116651,443.733968 774.330641,446.220358 C776.211891,447.117458 780.110731,448.164468 782.994731,448.547048 C786.710021,449.039898 788.911491,449.968948 790.547791,451.734548 C793.233341,454.632308 793.431801,458.123388 791.809601,473.931308 C790.886201,482.929628 790.960831,484.453998 792.439051,486.787268 C795.217641,491.173078 799.128211,494.934418 800.909451,494.934418 C807.308931,494.934418 811.015601,505.065648 810.933531,522.332678 C810.889131,531.685328 810.469461,534.740748 808.502311,540.035358 C805.337361,548.553828 803.104441,567.336238 804.709351,571.940088 C805.350121,573.778188 806.340521,578.199978 806.910241,581.766288 C808.177061,589.696288 809.949671,592.447198 819.663071,601.557388 L827.257671,608.680358 L823.026621,615.174408 C820.699551,618.746138 816.500111,623.750778 813.694541,626.295878 L808.593501,630.923378 L809.066041,638.286578 C809.366831,642.973578 809.121441,646.220178 808.390821,647.219378 C807.759561,648.082678 804.778151,649.879078 801.765471,651.211478 C791.444651,655.775778 787.717621,664.254678 793.357221,670.339878 C796.657421,673.900878 796.520751,675.194178 792.357221,679.802778 C790.432221,681.933478 788.857221,684.717678 788.857221,685.989878 C788.857221,689.855378 792.744761,696.618378 796.980381,700.121478 C807.215551,708.586578 808.857221,710.548678 808.857221,714.316778 C808.857221,717.852578 808.023171,719.115478 803.007501,723.174578 C801.604901,724.309778 800.855921,726.048278 800.853481,728.174578 C800.851481,729.967478 799.958041,732.896878 798.868181,734.684378 C797.113661,737.562078 796.397991,737.925378 792.621921,737.855478 C790.276331,737.812478 787.232221,737.397478 785.857221,736.934078 L785.857221,736.934178 Z" id="path3972-path"></path>
            <path d="M295.62168,716.270778 C289.52404,713.959778 288.40953,713.075178 283.8536,706.929578 C279.07653,700.485678 269.86306,681.475178 269.8521,678.039778 C269.8441,675.625978 266.26752,670.374878 256.88977,659.009978 C248.47133,648.807778 248.40093,648.751778 244.72719,649.339178 C242.69487,649.664178 240.37574,650.181978 239.57358,650.489778 C235.53116,652.040978 232.532,642.936678 235.22506,637.289278 C237.15521,633.241678 237.38509,625.394078 235.60722,624.243478 C234.91972,623.798478 229.85722,622.256718 224.35722,620.817298 L214.35722,618.200188 L214.57555,612.317298 C215.39028,590.364248 216.37928,585.922138 221.45502,581.418088 C222.08495,580.859108 223.78314,578.658818 225.22878,576.528548 C228.99002,570.986058 228.73327,566.556358 224.29321,560.386738 C208.80517,538.865558 208.57771,538.253288 214.35725,533.641788 C216.28223,532.105838 217.85722,530.209168 217.85722,529.426968 C217.85722,527.093428 221.32806,525.934418 228.31623,525.934418 C235.79583,525.934418 235.55277,525.660738 238.53001,537.434418 C240.04014,543.406318 244.73421,549.934418 247.5182,549.934418 C249.42291,549.934418 250.85722,553.312878 250.85722,557.799338 C250.85722,561.939358 252.70818,565.625818 258.60937,573.238858 C264.88553,581.335668 267.65157,586.025518 268.32582,589.713238 C269.48068,596.029498 273.41803,601.719138 277.39384,602.816918 C283.65417,604.545478 288.34233,602.247848 299.47984,591.992728 C303.39728,588.385658 307.89728,584.261678 309.47984,582.828318 C315.85972,577.049938 319.53797,571.526088 320.06335,566.934418 C320.94444,559.233918 323.72048,554.789328 328.67184,553.151698 C331.61702,552.177608 333.28749,550.932908 333.93488,549.230148 C335.12901,546.089348 343.79557,538.027128 346.03464,537.974128 C348.24644,537.921728 351.85722,542.595188 351.85722,545.510258 C351.85722,546.778628 352.34631,548.118658 352.94409,548.488108 C354.49846,549.448758 361.41299,546.161898 368.1263,541.271158 C375.66339,535.780268 382.62831,534.190318 392.12578,535.792558 C401.66778,537.402298 404.63529,537.228638 407.95285,534.866328 C410.17222,533.285998 410.85722,532.005648 410.85722,529.437748 C410.85722,524.969348 413.09048,522.934418 417.99439,522.934418 C423.30104,522.934418 425.45904,521.635238 427.81136,517.024318 C431.01324,510.748098 433.96126,510.450888 443.81122,515.411248 C447.60846,517.323508 452.54423,519.180548 454.7796,519.537998 C458.44516,520.124138 459.35965,519.799138 464.10056,516.225348 C474.18194,508.625818 489.29767,500.139328 496.56636,497.997928 C500.53138,496.829808 505.08572,494.771588 506.6871,493.424108 C508.28848,492.076638 511.70171,490.072708 514.27204,488.970928 C519.41271,486.767388 521.85722,482.799128 521.85722,476.657668 C521.85722,471.526558 523.58261,470.126938 532.0491,468.390088 C538.83673,466.997648 540.01232,466.984908 542.0491,468.281708 C543.31857,469.089968 547.05722,470.288788 550.35722,470.945768 C553.65722,471.602738 559.95722,473.965698 564.35722,476.196778 C573.73103,480.949898 578.40765,481.354488 591.85722,478.575878 C599.2986,477.038528 601.5623,476.006288 610.03318,470.287678 C615.35495,466.694998 620.36638,463.008288 621.16969,462.094978 C621.97301,461.181668 623.42873,455.939898 624.40465,450.446588 C625.86915,442.203038 626.66142,439.976378 628.9412,437.696588 C632.53182,434.105968 633.65815,434.213728 635.37038,438.311678 C636.51572,441.052868 636.56693,442.842718 635.64225,447.814908 C634.26361,455.228178 635.75025,466.975518 638.53957,470.709398 C639.53928,472.047648 642.15441,474.108238 644.35099,475.288498 C646.54756,476.468758 648.65366,477.860168 649.03121,478.380538 C651.05614,481.171418 643.42311,487.160298 636.88107,487.913548 C632.92956,488.368518 632.13599,488.877228 630.60864,491.934418 C629.64691,493.859418 628.40589,497.234418 627.85079,499.434418 C626.94777,503.013398 626.03531,503.908068 619.18178,507.934418 C609.35043,513.710198 606.41456,516.174668 604.84164,519.972028 C603.70678,522.711828 603.80243,523.369038 605.71194,525.951778 C606.89184,527.547688 607.85722,529.458378 607.85722,530.197758 C607.85722,532.033508 602.12653,537.330258 597.85722,539.440518 C591.34562,542.659128 587.7509,546.104308 585.13125,551.637078 C582.23408,557.756008 581.39131,558.268688 564.57894,564.139528 C556.65942,566.905008 555.44535,567.672698 552.71466,571.641628 C548.98048,577.069078 549.30964,578.958068 555.19,585.847088 C560.26058,591.787428 564.43088,599.632008 566.31474,606.773388 C567.64274,611.807608 567.62175,611.914678 563.77137,619.744968 C559.31382,628.809978 555.34932,632.212778 547.21822,633.952778 C541.29389,635.220578 534.312,640.578378 532.33535,645.373678 C531.40336,647.634678 531.32222,650.050378 532.02481,654.619278 C532.79589,659.633578 532.68076,661.374978 531.41656,663.819678 C530.55892,665.478178 529.85722,667.982478 529.85722,669.384778 C529.85722,673.617078 526.60858,675.934378 520.67532,675.934378 C513.61625,675.934378 500.33782,679.659178 496.80777,682.629478 C493.52935,685.388078 491.87095,690.257578 491.8628,697.149278 C491.8588,700.915178 491.4337,702.090678 489.7529,702.990278 C487.22209,704.344678 475.30266,703.355678 469.50513,701.310178 C467.36048,700.553478 463.49835,699.934378 460.92262,699.934378 C456.10879,699.934378 454.18097,698.971278 451.75352,695.353378 C450.98556,694.208778 447.45819,690.694678 443.91493,687.544378 L437.47264,681.816378 L431.15568,682.492878 C424.46276,683.209678 420.74019,682.271678 415.65547,678.587278 L412.95372,676.629678 L407.11813,682.032378 C402.99249,685.851978 399.66236,687.945778 395.75334,689.178078 C392.71228,690.136678 387.55408,692.995078 384.29068,695.529978 C373.75464,703.714278 368.82063,705.198178 352.77393,705.008378 C342.84854,704.890978 341.60643,705.108778 332.79281,708.512578 C327.62401,710.508778 320.36022,713.670378 316.65107,715.538278 C308.53396,719.625978 304.81614,719.755478 295.62168,716.270778 L295.62168,716.270778 Z" id="path3972-path"></path>
            <path d="M4.31109,612.674798 C3.98609,611.827878 4.39229,608.871828 5.21368,606.105798 C7.05378,599.909538 6.44818,597.291378 2.73012,595.368688 C-0.79611,593.545208 -0.88861,591.601028 2.34891,587.356418 C5.74626,582.902268 13.63172,579.273628 24.138,577.329768 C35.56795,575.215008 37.00008,574.038378 37.00008,566.762268 C37.00008,561.653678 37.4846,560.387518 42.1596,553.279318 C44.99734,548.964618 48.08224,543.184418 49.01493,540.434418 C49.94762,537.684418 51.40812,535.290958 52.26049,535.115618 C53.80132,534.798648 60.21921,538.956318 62.60722,541.818488 C63.29472,542.642488 63.85722,544.407478 63.85722,545.740678 C63.85722,547.229278 65.19515,549.390178 67.32434,551.340438 C69.97271,553.766248 71.17485,556.041498 72.415,560.975308 C74.65321,569.879838 76.02128,571.745378 80.59005,572.123028 C88.83118,572.804228 84.61488,580.143328 71.65699,587.672378 C63.92782,592.163328 58.85722,596.801488 58.85722,599.380518 C58.85722,601.407578 51.01905,610.736778 48.56519,611.630368 C47.3508,612.072598 39.83222,612.442948 31.85722,612.453378 C23.88222,612.463778 14.55479,612.864368 11.1296,613.343498 C5.9025,614.074698 4.80705,613.967258 4.31109,612.674798 L4.31109,612.674798 Z" id="path3972-path"></path>
            <path d="M822.771251,600.521878 C813.348671,592.700748 810.978401,588.786638 808.651701,577.205808 C806.904931,568.511478 806.812311,566.242258 807.811441,556.618878 C808.432451,550.637398 809.896331,543.262638 811.086671,540.118878 C812.915601,535.288578 813.239641,532.330758 813.243171,520.434418 C813.247171,507.861868 812.998021,505.830218 810.802271,500.508628 C808.614741,495.206968 807.924031,494.439398 804.244351,493.220998 C801.608761,492.348318 798.945001,490.382758 796.828231,487.748718 L793.524981,483.638268 L794.769851,468.801308 C795.999691,454.143518 795.988201,453.927098 793.818431,450.879938 C791.472491,447.585378 788.270761,445.934418 784.227501,445.934418 C782.852771,445.934418 779.485391,444.969678 776.744451,443.790558 C772.413961,441.927628 771.251371,441.799358 767.872481,442.811698 C764.307251,443.879868 763.833331,444.452868 762.170641,449.705558 C760.541131,454.853418 759.900851,455.656028 755.857221,457.619628 C749.904801,460.510128 733.187631,462.113168 728.695191,460.224238 C727.008011,459.514838 721.824681,458.934418 717.176671,458.934418 C706.197141,458.934418 704.643421,458.123668 705.489011,452.835638 C706.061511,449.255418 705.789511,448.459768 703.014211,445.596388 C698.844,441.293828 698.04577,437.007178 700.619741,432.737518 C701.714941,430.920818 703.359991,427.124838 704.275421,424.302028 C706.174961,418.444558 707.843501,416.672978 713.027231,415.009698 C717.361321,413.619028 717.960031,412.930688 720.267231,406.685748 C721.987861,402.028448 722.092201,401.946648 725.689421,402.434818 C728.060461,402.756578 730.584221,402.314168 732.827711,401.183488 C736.684291,399.239838 740.815221,392.873188 740.840771,388.833638 C740.869071,384.358318 742.777971,380.519078 746.128711,378.198298 C747.904391,376.968428 750.391231,375.211758 751.655011,374.294588 C753.719511,372.796318 754.797761,372.758448 762.274951,373.921618 C771.587981,375.370378 784.367591,374.140478 788.562751,371.391708 C789.814211,370.571718 793.142271,365.183378 795.958451,359.417618 C801.060901,348.971008 801.091481,348.934388 804.718001,348.925408 C807.599841,348.918408 808.902051,349.579248 810.975131,352.101438 C813.476421,355.144608 813.733971,355.228108 816.756791,353.976018 C818.496851,353.255258 821.543171,351.376048 823.526381,349.799988 C825.682341,348.086648 828.336291,346.934418 830.126691,346.934418 C834.396441,346.934418 839.594241,343.370218 841.891591,338.867078 C844.242191,334.259458 846.663791,332.687068 849.212591,334.113438 C850.204691,334.668628 857.618091,335.221408 865.686791,335.341838 L880.357191,335.560808 L887.696691,339.747608 C893.481491,343.047488 896.043691,343.934418 899.791691,343.934418 C906.16599,343.934418 908.07239,341.846278 907.68149,335.292648 C907.43659,331.188218 907.97889,329.425888 911.17639,323.934418 C916.33799,315.069728 919.22739,310.895038 922.27649,307.896768 C925.53329,304.694238 925.55039,301.934278 922.33249,298.910818 C916.99159,293.893358 911.72499,281.004098 913.92999,278.347198 C915.67269,276.247408 923.04089,275.877938 928.05129,277.639118 C932.46509,279.190628 932.98089,279.182588 936.70259,277.504298 C939.86129,276.079918 941.74019,275.885258 946.00899,276.540108 C948.95069,276.991378 954.07959,277.224308 957.40649,277.057718 C962.12289,276.821558 964.87649,277.333848 969.90649,279.383178 C973.45459,280.828778 979.50759,282.720848 983.35759,283.587788 C987.20759,284.454728 992.65339,286.238508 995.45939,287.551748 C998.26539,288.864988 1002.64829,290.329358 1005.19909,290.805898 C1007.74989,291.282438 1010.51649,292.236408 1011.34719,292.925818 C1013.26669,294.518868 1013.27049,298.512678 1011.35719,303.934418 C1009.05369,310.463348 1009.37519,317.162988 1012.10719,319.559628 C1017.85689,324.603598 1026.58529,329.348538 1031.35719,330.024338 C1042.64909,331.623508 1049.22789,335.347998 1056.53149,344.276378 C1057.98639,346.054948 1059.67589,346.934418 1061.63769,346.934418 C1063.46529,346.934418 1066.34919,348.293248 1069.29459,350.542218 C1073.92229,354.075748 1074.15249,354.135788 1080.47389,353.458818 C1085.99859,352.867188 1087.55599,352.224308 1091.28619,348.995858 C1094.11589,346.546808 1097.07319,344.995598 1099.71909,344.572488 C1104.65599,343.783048 1105.39869,342.529168 1106.31609,333.434418 C1106.70449,329.584418 1107.69099,325.390618 1108.50829,324.114868 C1109.84299,322.031718 1110.62369,321.827888 1116.16926,322.114868 L1122.34406,322.434418 L1127.44716,312.934418 C1134.08856,300.570678 1137.48446,296.934418 1142.38916,296.934418 C1146.22026,296.934418 1149.65486,299.752298 1155.74476,307.891868 C1157.05796,309.647028 1159.87046,312.180268 1161.99476,313.521288 C1165.29046,315.601748 1165.85716,316.478508 1165.85716,319.496618 C1165.85716,321.442038 1165.23986,324.248888 1164.48526,325.734078 C1163.03516,328.588458 1161.73626,339.767958 1161.49936,351.434418 C1161.38496,357.063178 1160.89026,359.089048 1158.97366,361.776228 C1156.77706,364.856058 1156.62976,365.812068 1157.09496,373.971008 L1157.59976,382.823978 L1152.66256,388.363368 L1147.72536,393.902768 L1149.44406,396.812298 C1151.13906,399.681648 1151.10996,399.824548 1147.33326,407.161048 C1143.60216,414.408918 1143.53666,414.717878 1144.78396,419.173078 C1145.48816,421.688128 1146.91106,425.138318 1147.94606,426.840158 C1149.76176,429.825838 1150.07366,429.934418 1156.83616,429.934418 L1163.84466,429.934418 L1166.95806,434.184418 C1170.05456,438.411358 1170.06806,438.484598 1169.44436,447.681158 C1168.43536,462.559378 1166.78916,464.267188 1156.12166,461.502958 C1152.48646,460.560988 1145.86396,459.934418 1139.54296,459.934418 L1129.01756,459.934418 L1123.85116,454.521188 C1121.00966,451.543908 1117.59856,448.835338 1116.27096,448.502138 C1114.18636,447.978938 1113.85716,447.308578 1113.85716,443.586808 C1113.85716,437.795578 1108.61169,429.492838 1105.45499,430.287678 C1095.04569,432.908718 1081.17749,437.691458 1075.52109,440.610958 C1072.45839,442.191808 1067.85719,451.087528 1067.85719,455.428138 C1067.85719,456.768318 1066.49739,459.413568 1064.83539,461.306488 C1063.17339,463.199398 1060.89959,467.377558 1059.78259,470.591278 C1057.95329,475.854208 1057.82029,477.858188 1058.44329,490.772728 C1059.07719,503.913458 1059.33539,505.349248 1061.53469,507.962998 C1064.49739,511.483998 1072.36849,513.934418 1080.71579,513.934418 L1086.76659,513.934418 L1087.45319,517.594498 C1088.19389,521.542768 1086.76019,523.417888 1082.10719,524.586258 C1080.41399,525.011408 1079.85719,525.876728 1079.85719,528.082668 C1079.85719,529.694948 1078.95719,532.778238 1077.85719,534.934418 C1076.65309,537.294718 1075.85719,540.828188 1075.85719,543.813988 C1075.85719,548.322328 1076.29119,549.257928 1080.62979,554.103828 C1091.46039,566.200488 1091.85719,566.799678 1091.85719,571.055738 C1091.85719,573.999498 1091.00179,576.298518 1088.72929,579.463048 C1085.03659,584.604988 1084.39989,584.905728 1075.63189,585.649698 C1066.77269,586.401408 1065.52619,585.432008 1066.39629,578.467468 C1067.02639,573.424688 1066.96409,573.263738 1062.99559,569.678428 C1060.77219,567.669728 1057.14589,564.830288 1054.93709,563.368568 C1050.66409,560.540858 1050.34949,559.949808 1049.38389,552.934418 C1048.12219,543.768048 1046.55269,538.372048 1044.48319,536.085428 C1040.91989,532.148328 1033.90039,529.254958 1026.09789,528.507188 C1019.75809,527.899598 1018.48249,528.065048 1016.02709,529.813418 C1014.48079,530.914488 1010.99749,532.349638 1008.28639,533.002638 C1005.57539,533.655648 1001.30039,535.477538 998.78659,537.051288 C992.28359,541.122398 988.66609,541.646618 985.01519,539.046938 C983.38349,537.885048 981.54879,536.934418 980.93809,536.934418 C978.66849,536.934418 975.86469,543.348498 975.86089,548.549558 C975.86089,552.211388 975.26639,554.415738 973.77789,556.308088 C971.86179,558.743998 971.17499,558.934268 965.02789,558.732308 C961.03309,558.601048 957.09309,559.071758 955.20589,559.905748 C952.39519,561.147858 951.04439,561.050928 942.70589,559.008878 C929.30199,555.726288 928.70959,555.295008 923.18219,544.794028 C919.96709,538.685888 916.93919,534.440188 914.10719,532.069158 L909.85719,528.510898 L909.85719,510.749408 C909.85719,494.490358 909.67119,492.605008 907.65789,488.461168 C906.44829,485.971458 904.76079,483.936358 903.90789,483.938718 C903.05499,483.940718 899.985591,485.741088 897.086891,487.938718 C894.188291,490.136358 891.229191,491.934418 890.511191,491.934418 C888.995691,491.934418 884.857191,487.791938 884.857191,486.274958 C884.857191,485.708148 883.968391,484.440018 882.882091,483.456888 C881.105791,481.849378 880.075191,481.775558 872.647691,482.723758 C865.092691,483.688248 864.115291,484.076358 861.183091,487.275928 C859.420091,489.199708 857.459291,492.722368 856.825891,495.104068 C856.192491,497.485758 854.755491,500.934548 853.632491,502.768028 C851.855991,505.668598 851.738891,506.596058 852.731091,509.907658 C853.358191,512.000958 854.993191,514.448708 856.364291,515.347098 C858.734491,516.900108 858.858791,517.459378 858.888991,526.707468 C858.911991,533.671518 859.337891,536.985788 860.388991,538.375548 C863.586291,542.602698 860.580691,560.446908 855.008491,570.320428 C853.275291,573.391458 851.857191,576.969388 851.857191,578.271388 C851.857191,581.195808 848.028491,587.040668 845.183891,588.458888 C841.357591,590.366488 839.884921,592.117828 838.838101,596.005438 C837.609921,600.566538 833.364721,605.934418 830.985751,605.934418 C830.054221,605.934418 826.357701,603.498778 822.771251,600.521878 L822.771251,600.521878 Z" id="path3972-path"></path>
            <path d="M275.52451,597.680478 C273.29847,595.320188 271.7921,592.331458 270.85074,588.407398 C269.90778,584.476728 267.99968,580.695118 264.90945,576.632548 C256.67937,565.812888 253.93813,560.756858 253.89615,556.319278 C253.85105,551.556308 251.13669,547.472358 247.39122,546.532308 C244.48363,545.802548 242.62063,542.540118 240.87764,535.125938 C240.19126,532.206268 238.51587,528.493768 237.15456,526.875938 C235.05422,524.379828 233.95925,523.934418 229.92331,523.934418 C224.45919,523.934418 223.15187,522.843168 220.03488,515.680368 C218.66788,512.539008 217.0835,510.590748 215.36432,509.937118 C206.419,506.536108 176.40535,497.934418 173.48365,497.934418 C171.55199,497.934418 168.36949,498.879658 166.41142,500.034938 C163.10697,501.984618 161.96564,502.084378 150.51884,501.424158 C136.42789,500.611418 135.00321,501.028568 128.35722,507.913208 C121.76502,514.742108 115.22196,517.934418 107.81741,517.934418 C104.35441,517.934418 98.70028,518.425628 95.25268,519.026008 C89.37379,520.049768 88.57927,520.531308 82.46532,526.776008 C78.87987,530.438128 74.07575,536.057888 71.78949,539.264358 L67.63266,545.094298 L65.80048,542.081508 C63.81873,538.822788 55.0164,531.437108 51.95717,530.466138 C50.9205,530.137118 49.51379,528.519518 48.83115,526.871468 C48.14851,525.223428 44.27511,520.908238 40.2236,517.282158 L32.85722,510.689278 L32.85722,505.055248 C32.85722,501.956528 32.40513,497.849188 31.85258,495.927818 C31.00274,492.972728 31.16049,492.049188 32.87631,489.934418 C37.29991,484.482278 44.43816,474.696038 45.85722,472.138158 C46.68222,470.651078 48.6333,467.766328 50.19295,465.727608 C51.7526,463.688898 52.73456,461.544968 52.3751,460.963348 C52.01563,460.381718 49.95205,459.003118 47.78937,457.899808 C41.2469,454.562078 41.96449,453.286008 60.60722,435.106278 C79.36034,416.818898 83.8622,413.412228 95.35722,408.810068 C105.5055,404.747088 109.9917,401.922318 115.2326,396.295368 C118.34434,392.954408 121.0791,391.223598 125.88798,389.551648 L132.35722,387.302418 L132.03312,381.425458 C131.85486,378.193128 131.06736,374.307668 130.28312,372.791118 C128.45969,369.264988 128.47988,365.568068 130.35712,359.246778 C131.75068,354.554168 132.12283,354.152198 135.60712,353.576288 C137.66969,353.235368 141.03639,352.951478 143.08869,352.945428 C145.61159,352.938428 150.3079,351.165668 157.58869,347.473338 C163.51139,344.469748 170.29022,341.521888 172.65275,340.922538 C175.37041,340.233108 178.85999,338.103048 182.15275,335.123698 C185.01522,332.533678 189.20716,329.805158 191.46818,329.060328 C195.13662,327.851858 195.8694,327.896278 198.27579,329.473008 C201.84064,331.808788 204.42366,337.079898 206.41023,346.072818 C209.55626,360.314448 212.43772,371.446598 213.36734,372.950758 C213.7678,373.598708 217.17005,376.117808 220.9279,378.548748 C224.68575,380.979688 228.0505,383.438108 228.40512,384.011888 C229.49751,385.779418 226.74085,390.934658 224.48065,391.351028 C215.95494,392.921618 214.34338,393.576528 212.97287,396.027598 C212.17539,397.453838 211.82947,399.419658 212.20416,400.396088 C212.82279,402.008208 213.87228,402.105098 223.62132,401.450168 C229.52608,401.053498 234.95263,400.242778 235.68033,399.648578 C236.40803,399.054378 237.87967,396.850608 238.95065,394.751318 C240.0648,392.567408 241.6379,390.928578 242.62756,390.920768 C243.57889,390.912768 245.34788,390.641488 246.55867,390.316838 C249.46225,389.538288 253.85724,394.162088 253.85724,397.995378 C253.85724,400.128418 252.68415,401.698308 248.74901,404.831518 C241.68573,410.455378 236.04125,417.097908 234.48021,421.623298 C233.20867,425.309438 232.99614,425.444348 227.9992,425.737098 L222.83284,426.039788 L219.79938,432.049028 C216.78814,438.014278 216.77438,438.116098 217.92045,445.954098 C218.55543,450.296798 219.60567,454.575698 220.25431,455.462758 C221.03426,456.529408 224.10494,457.407248 229.32167,458.054908 C238.37177,459.178478 238.85724,459.376848 238.85724,461.951278 C238.85724,463.170128 237.15623,464.819078 234.10724,466.555898 C228.12515,469.963528 223.85559,473.845988 223.86282,475.871508 C223.87862,480.293948 226.10895,485.013218 228.85414,486.432818 C233.0837,488.620008 234.57789,488.329378 239.12827,484.434418 C241.3772,482.509418 243.84266,480.934418 244.60706,480.934418 C249.0794,480.934418 263.82174,495.197828 265.82858,501.466518 C266.52722,503.648868 267.41454,505.781978 267.80039,506.206768 C269.10896,507.647398 278.33914,502.780548 281.85731,498.794888 C284.86999,495.381898 286.13408,494.724338 290.93505,494.072828 C297.45924,493.187478 300.20221,491.400518 308.43061,482.675018 C314.626,476.105348 317.4904,474.562958 328.17822,472.041488 C330.82976,471.415938 333.41726,471.162498 333.92822,471.478288 C335.67838,472.559948 334.94498,485.735628 332.77389,492.215968 C329.68161,501.445908 325.30637,508.604878 322.29595,509.360448 C320.00358,509.935798 319.77435,510.447838 319.89862,514.715518 C319.97422,517.310918 319.71133,522.202618 319.31447,525.585968 L318.59291,531.737508 L323.08845,536.585968 C326.91805,540.716198 330.84919,548.325128 329.7069,549.396328 C329.51459,549.576668 327.65116,550.431318 325.56595,551.295548 C321.28627,553.069288 317.99375,558.980578 317.34641,566.052698 C317.00658,569.765308 314.17581,574.135958 308.35555,579.934418 C293.70033,594.534718 288.01621,598.896918 281.58324,600.480438 C279.26078,601.052128 278.27457,600.596368 275.52453,597.680478 L275.52451,597.680478 Z" id="path3972-path"></path>
            <path d="M354.31429,542.684418 C353.4092,539.679478 347.86714,533.934418 345.87346,533.934418 C344.99818,533.934418 342.06587,536.184418 339.35722,538.934418 C334.12732,544.244158 332.18422,545.014848 331.16312,542.184418 C330.81589,541.221918 328.52235,538.254548 326.06636,535.590268 C321.69636,530.849628 321.61418,530.635948 322.22039,525.590268 C322.56108,522.754548 322.84375,518.512268 322.84853,516.162978 C322.85553,512.563408 323.25677,511.709488 325.39739,510.734158 C327.11428,509.951898 329.27524,506.877228 332.06486,501.247548 C335.8564,493.595888 336.2575,492.014048 336.99542,481.802548 C337.57394,473.796878 338.39089,469.463458 339.91527,466.314498 C342.06401,461.875808 346.06589,457.934418 348.42398,457.934418 C349.13736,457.934418 350.62505,456.664838 351.72997,455.113118 C353.39035,452.781328 353.7058,450.899988 353.54807,444.269918 C353.31614,434.521228 354.19471,433.101088 360.45763,433.101088 C362.92924,433.101088 365.67497,432.501088 366.55925,431.767748 C370.19254,428.754648 372.02376,419.982638 369.8625,415.944288 C369.31541,414.922038 366.204,412.467478 362.94827,410.489728 C359.69253,408.511968 355.5794,405.243088 353.80796,403.225538 L350.58718,399.557258 L351.12493,389.798178 C351.54658,382.146218 352.23448,378.790138 354.3109,374.254628 C357.37124,367.569968 358.64172,360.537298 356.97507,359.507258 C354.69067,358.095418 355.81513,355.934418 358.83417,355.934418 C363.16739,355.934418 365.24477,352.319508 364.62402,345.859288 C364.35753,343.085858 363.73739,340.414588 363.24592,339.923118 C362.75446,339.431658 357.40345,338.721368 351.35478,338.344708 C341.26532,337.716408 331.09529,335.282678 328.46285,332.866558 C327.94172,332.388248 328.09042,330.785638 328.81919,329.026238 C329.85827,326.517678 329.79981,325.214168 328.47369,321.322228 C326.95468,316.864188 326.9743,316.481038 328.87944,313.398458 C329.98051,311.616898 331.55095,309.603568 332.3693,308.924388 C334.78311,306.921108 334.09294,303.970138 330.33068,300.207878 C327.33561,297.212808 326.30705,296.762018 323.50562,297.216618 C321.69143,297.511028 317.40399,299.563628 313.97798,301.777968 C303.98387,308.237478 292.12763,308.692688 284.81102,302.897828 C281.32044,300.133238 281.12241,299.692488 281.87383,296.360778 C282.84558,292.052168 284.3948,290.242268 290.89891,285.817098 C296.35496,282.104998 296.68342,281.509038 296.89671,274.934418 C297.16534,266.653818 296.92961,265.970148 292.26512,261.500768 C286.72491,256.192308 284.85929,255.440048 273.64828,253.994068 L264.93934,252.870808 L256.92048,256.902608 C252.5101,259.120108 248.4878,260.934418 247.98203,260.934418 C247.47626,260.934418 246.87148,257.221918 246.63808,252.684418 C246.40467,248.146918 246.021,243.791888 245.78546,243.006578 C245.35955,241.586488 247.36729,240.615588 253.16633,239.437378 C254.71133,239.123478 257.91166,237.081898 260.27816,234.900528 C262.70846,232.660348 265.62014,230.915318 266.96905,230.890528 C270.90313,230.818228 276.04773,228.527428 281.57189,224.388178 C286.66104,220.574868 288.35542,218.195578 291.22893,210.827498 L292.63561,207.220568 L300.17312,207.704298 C312.3774,208.487518 315.85722,206.730708 315.85722,199.786068 C315.85722,196.692278 316.52255,195.115238 318.7803,192.857498 C322.40668,189.231108 325.07271,189.171868 333.12709,192.538668 C342.64828,196.518608 345.58576,196.161578 358.40458,189.466368 C368.11591,184.394178 370.29275,183.645808 376.40458,183.278248 C384.051,182.818398 402.98585,185.820318 403.57432,187.585718 C404.34477,189.897058 392.56099,199.818458 379.4059,207.934418 C360.72052,219.462268 361.52718,218.571638 363.83216,225.129308 C365.46757,229.782028 366.22938,230.662578 370.02705,232.289798 C372.40864,233.310258 376.49472,235.494668 379.10722,237.144048 C384.58158,240.600228 385.09895,242.997668 382.14743,251.232218 C379.59418,258.355648 380.70713,259.489408 389.99204,259.223438 C400.63308,258.918618 401.39307,258.571658 405.43998,252.170908 C409.94549,245.044838 414.7303,239.934418 416.89684,239.934418 C417.80284,239.934418 421.16001,240.834418 424.35722,241.934418 C431.19793,244.287968 435.66784,244.458208 440.25865,242.540048 C447.6453,239.453708 448.60544,233.781008 443.35722,224.233038 C441.43222,220.730938 439.85722,216.661258 439.85722,215.189318 C439.85722,213.164618 437.99829,210.719298 432.22159,205.145078 C422.39247,195.660488 422.77933,195.078018 439.43351,194.286738 L451.35722,193.720218 L454.16877,198.279468 C455.71512,200.787048 457.96512,203.197748 459.16877,203.636568 C460.37242,204.075388 466.28041,204.434418 472.29764,204.434418 L483.23805,204.434418 L486.60907,212.934418 C490.0173,221.528248 494.78104,233.326918 497.60276,240.163208 C498.88113,243.260368 498.94834,244.855518 497.99953,249.579988 C497.37126,252.708388 496.85722,256.782378 496.85722,258.633318 C496.85722,260.484258 496.13081,263.671698 495.24298,265.716538 C492.92587,271.053288 493.27931,283.881298 495.88415,288.987208 C496.96934,291.114348 497.85722,293.497818 497.85722,294.283798 C497.85722,297.670548 501.28991,300.022628 507.10722,300.621888 L512.85722,301.214228 L512.85722,308.554908 C512.85722,315.233638 512.54201,316.388338 509.36166,321.360028 C506.0202,326.583568 505.65829,326.837918 501.1524,327.129448 L496.43871,327.434418 L493.57087,335.905278 L490.70303,344.376138 L492.48717,352.236668 C493.98928,358.854628 494.69517,360.316378 496.95268,361.483788 C498.42743,362.246408 501.90853,365.728758 504.68846,369.222328 C511.56071,377.858808 517.95396,383.577118 521.64359,384.387498 C523.33284,384.758518 527.18138,384.606138 530.19591,384.048868 C538.98981,382.423228 549.49899,383.736168 555.05861,387.155048 C562.31184,391.615398 565.24706,392.165468 574.5772,390.812928 C581.5677,389.799558 583.73649,389.859458 589.0772,391.213468 C592.53121,392.089148 596.55291,393.057668 598.01432,393.365748 C599.47572,393.673828 601.33917,394.182128 602.15531,394.495308 C602.99736,394.818438 605.09211,393.790428 606.99821,392.118638 C608.84567,390.498288 612.82968,387.715798 615.85158,385.935348 L621.34594,382.698158 L628.12268,384.880748 C636.08198,387.444208 638.48084,389.664318 639.38032,395.299498 C639.74332,397.573708 641.16963,401.865238 642.54989,404.836238 C644.54588,409.132598 644.87863,410.872098 644.17586,413.336238 C643.37037,416.160548 642.88228,416.461078 638.65441,416.735958 C632.85839,417.112798 631.56682,418.642368 631.70917,424.961048 C631.81114,429.486978 631.45153,430.350168 627.96899,433.938678 C624.51719,437.495528 623.94444,438.846648 622.46838,446.914618 C621.5622,451.867748 620.29189,457.081088 619.64547,458.499818 C618.96947,459.983458 614.17149,463.953788 608.35167,467.845428 C599.03577,474.074838 597.51285,474.743308 589.15187,476.272968 C584.15714,477.186768 578.71724,477.934418 577.06318,477.934418 C574.04009,477.934418 565.29064,474.368948 562.37426,471.948558 C559.87069,469.870788 543.94626,465.736828 536.85722,465.324378 C532.4054,465.065358 528.7817,465.495768 525.35722,466.690308 L520.35722,468.434418 L519.73555,473.934418 C518.84793,481.787288 517.25365,484.558638 512.53834,486.445328 C510.31234,487.335998 507.24122,489.116408 505.71363,490.401788 C503.034,492.656548 497.05163,495.217108 491.85722,496.332568 C488.93248,496.960638 467.08652,509.833328 461.56592,514.181658 C457.06403,517.727598 454.51791,517.521848 445.62469,512.893418 C442.45886,511.245788 437.86442,509.623018 435.41482,509.287258 C430.6831,508.638708 429.26275,509.598448 423.33457,517.449958 C421.76144,519.533478 420.20573,520.247428 416.33457,520.662418 C410.11808,521.328838 408.85722,522.316218 408.85722,526.517908 C408.85722,533.371228 403.98638,535.113398 391.34028,532.783268 C382.74313,531.199178 373.45017,533.499118 366.12761,539.023218 C361.77164,542.309348 356.98969,544.934418 355.35951,544.934418 C355.15738,544.934418 354.68703,543.921918 354.31429,542.684418 L354.31429,542.684418 Z" id="path3972-path"></path>
            <path d="M267.91637,498.684418 C265.74586,492.247868 249.67813,477.934418 244.62321,477.934418 C243.22329,477.934418 240.85794,479.370198 238.85722,481.434418 C233.75722,486.696288 229.0517,485.596718 227.34155,478.743478 C226.56788,475.643118 228.25321,473.748208 236.35722,468.606648 C240.52893,465.959918 241.4107,464.874968 241.68006,462.057258 C241.85763,460.199828 241.61216,458.289338 241.13454,457.811738 C240.65694,457.334138 236.60739,456.425958 232.13555,455.793558 C227.6637,455.161148 223.49517,454.328698 222.87215,453.943648 C222.24913,453.558598 221.25611,449.987428 220.66544,446.007718 C219.67197,439.314138 219.76248,438.406778 221.87323,433.900238 C224.12571,429.091108 224.22042,429.024798 229.2561,428.731518 L234.35722,428.434418 L236.98056,422.934278 C238.82696,419.063088 242.1898,415.007368 248.33523,409.240128 L257.06656,401.046108 L256.43187,395.240268 L255.79718,389.434418 L261.24644,382.718118 C267.58214,374.909278 269.85722,368.470188 269.85722,358.347328 L269.85722,351.568058 L263.02518,345.001238 C255.31022,337.585778 253.35884,334.839428 252.50671,330.197618 C252.04412,327.677778 252.39114,326.514898 254.07342,324.947618 C255.26193,323.840358 256.99477,322.934418 257.92417,322.934418 C259.94824,322.934418 266.63604,331.440728 270.18131,338.524438 C274.30179,346.757468 280.9835,351.619698 287.00551,350.767298 C289.75609,350.377958 294.67602,343.543848 296.767,337.207938 C298.11727,333.116428 298.06913,332.847768 295.25952,328.795588 C292.72317,325.137508 292.35722,323.716038 292.35722,317.522068 L292.35722,310.434418 L301.34337,309.159688 C309.03926,308.067988 311.17956,307.314168 316.24966,303.909688 C323.14218,299.281478 325.05574,299.042028 328.40267,302.388968 C331.54235,305.528638 331.4945,306.124728 327.78185,310.122698 C324.93581,313.187448 324.75523,313.807288 325.36027,318.434418 C326.23954,325.158738 326.24769,327.792268 325.40207,331.934418 L324.68753,335.434418 L331.63199,337.670198 C335.88865,339.040638 342.59795,340.157738 348.96683,340.556448 C354.68154,340.914208 359.91972,341.650698 360.60722,342.193108 C361.29472,342.735518 361.85722,344.869108 361.85722,346.934418 C361.85722,351.224738 360.61583,352.615438 356.35722,353.095928 C353.89489,353.373758 353.2984,353.949118 353.02904,356.306238 C352.84854,357.885738 353.18604,359.663238 353.77904,360.256238 C355.50134,361.978538 355.04,365.640208 352.45898,370.733608 C349.7572,376.065298 347.25996,392.444848 348.14399,399.035808 C348.75593,403.598108 352.61514,407.642478 361.64734,413.187008 C367.35719,416.692078 368.46922,418.858618 367.42243,424.438498 C366.60663,428.787098 362.71187,431.109648 357.62077,430.283468 C352.30139,429.420258 350.85722,432.169038 350.85722,443.156928 C350.85722,450.601088 350.55341,452.238228 348.85722,453.934418 C347.75722,455.034418 346.20763,455.934418 345.41368,455.934418 C344.61974,455.934418 342.48224,457.744828 340.66368,459.957548 C336.75657,464.711528 328.96047,469.414378 323.35722,470.397348 C317.30827,471.458508 309.62068,476.325148 304.4703,482.353738 C299.29032,488.416968 293.05839,491.934418 287.49604,491.934418 C283.83975,491.934418 278.85722,495.353948 278.85722,497.863288 C278.85722,499.182578 273.53569,501.934418 270.98443,501.934418 C269.65097,501.934418 268.65741,500.881948 267.91637,498.684418 L267.91637,498.684418 Z" id="path3972-path"></path>
            <path d="M649.85722,474.820768 C648.48222,474.277988 645.70594,472.695418 643.68772,471.303938 C638.38758,467.649738 636.69499,459.653078 638.31574,445.924048 C638.92288,440.781088 638.73156,438.575718 637.40485,435.424048 C635.36983,430.589748 633.86264,423.083878 634.56132,421.263148 C634.88851,420.410498 636.81175,419.934418 639.92903,419.934418 C645.26753,419.934418 646.11811,419.117198 647.21478,412.934418 C647.67111,410.361778 647.19418,408.056288 645.41499,404.233148 C644.08365,401.372448 642.7012,397.076778 642.34286,394.687218 L641.69134,390.342558 L646.73321,387.598428 C652.66232,384.371398 655.85258,380.687728 655.86909,377.049558 C655.87609,375.611228 656.53493,371.976988 657.33422,368.973468 C658.81594,363.405608 658.17539,357.433458 654.86384,345.941018 C654.3102,344.019648 653.85722,340.564808 653.85722,338.263598 C653.85722,334.923618 654.39432,333.657098 656.5197,331.985268 C657.98407,330.833398 660.34657,329.648248 661.7697,329.351598 C668.8963,327.866078 670.4203,326.434638 673.19421,318.620958 C674.65887,314.495258 675.85722,310.627998 675.85722,310.027048 C675.85722,307.633168 679.92197,308.978138 680.8661,311.684418 C683.55523,319.392618 687.72033,321.885488 697.96643,321.919238 C701.931651,321.932338 703.229681,322.510128 707.256741,326.054888 L711.937831,330.175348 L717.647531,328.645008 C720.787861,327.803318 726.149651,326.829028 729.562611,326.479928 C736.945551,325.724748 739.102431,327.191948 740.811181,334.131668 C742.690061,341.762348 744.028791,343.448058 748.112511,343.325468 C750.762401,343.245968 753.427281,341.964058 757.987271,338.575468 C762.350431,335.333158 765.192451,333.934418 767.417151,333.934418 C770.349941,333.934418 770.651301,334.245188 771.230401,337.866708 C772.395551,345.153138 770.546101,347.530108 759.506691,352.934418 L752.357221,356.434418 L751.819821,361.934418 C751.130261,368.991808 748.976311,372.928068 744.003101,376.219178 C740.523981,378.521558 739.859901,379.591168 738.771621,384.645358 C736.865141,393.499478 734.484901,397.572158 730.435671,398.908528 C727.545921,399.862228 726.541051,399.773368 724.407531,398.375428 C721.058261,396.180898 719.632291,397.385538 717.988881,403.797748 C716.540201,409.450238 715.038031,411.097398 709.218641,413.414538 C705.734961,414.801648 704.806611,415.803958 703.352081,419.748418 C702.401701,422.325718 700.288021,426.858398 698.65501,429.821048 C695.10841,436.255378 695.38734,439.809808 699.88277,445.466568 C703.676131,450.239898 703.866931,455.015618 700.402671,458.479868 C699.05267,459.829868 697.48237,460.934418 696.9131,460.934418 C696.34383,460.934418 691.42523,459.643798 685.98287,458.066378 C677.23485,455.530848 675.43117,455.311448 670.42502,456.173938 C663.84045,457.308378 662.41882,458.922418 661.38769,466.434418 C660.17408,475.275848 656.95012,477.620698 649.85722,474.820768 L649.85722,474.820768 Z" id="path3972-path"></path>
            <path d="M216.35721,398.934408 C215.20239,397.065868 217.54935,395.512588 223.15655,394.434418 C227.79041,393.543408 228.55879,393.021818 230.20666,389.648668 C232.92013,384.094268 231.87751,382.083058 223.39178,376.502758 C215.73636,371.468468 214.999,370.414958 213.33968,362.140858 C212.72082,359.054978 213.11041,358.440208 219.5182,352.391108 C223.27966,348.840198 228.38222,344.738778 230.85722,343.276848 C233.33222,341.814908 237.89332,338.439798 240.99301,335.776598 C249.97894,328.056028 251.32167,329.282948 250.70787,344.653518 C250.41587,351.965728 249.86457,354.406708 247.41179,359.247488 C244.68853,364.622088 244.56865,365.300948 245.82254,368.247488 C247.41576,371.991428 247.27627,380.305958 245.56125,383.823268 C244.89903,385.181388 243.00722,387.033468 241.35722,387.938998 C239.70722,388.844528 237.3643,391.351438 236.15074,393.509918 C234.03767,397.268248 233.67778,397.462608 227.65074,398.100198 C224.1893,398.466388 220.39551,399.068088 219.22008,399.437318 C217.97077,399.829758 216.78145,399.620838 216.35721,398.934408 L216.35721,398.934408 Z" id="path3972-path"></path>
            <path d="M589.85722,388.692008 C583.25181,386.897718 581.54987,386.790668 575.58866,387.794568 C565.71743,389.456918 564.87527,389.323028 557.59886,384.934418 C553.18526,382.272448 549.78404,380.934418 547.43105,380.934418 C543.50755,380.934418 543.03526,379.990718 543.08861,372.257548 C543.10781,369.476358 542.40566,367.175808 540.98732,365.372688 C539.81577,363.883298 538.85722,362.231938 538.85722,361.703008 C538.85722,361.174078 540.67562,358.675508 542.89811,356.150628 C546.54329,352.009478 546.91752,351.089068 546.7196,346.751638 C546.44956,340.833488 549.11497,337.468628 554.79205,336.560828 C557.82456,336.075908 559.56791,334.818178 563.35997,330.379528 C567.91533,325.047408 568.09649,324.602488 567.55922,320.066068 C567.25039,317.458538 567.33525,314.778988 567.74778,314.111498 C568.81359,312.386978 574.49869,310.939698 580.35062,310.903148 C583.5951,310.882848 587.11701,310.006198 590.35722,308.412288 C596.58137,305.350528 598.04933,305.335428 601.49328,308.297798 C603.77446,310.259978 604.26034,311.519938 604.3556,315.720098 C604.4405,319.462178 605.43174,322.614288 608.16377,327.829588 C610.19517,331.707408 611.85722,335.808208 611.85722,336.942478 C611.85722,338.076748 612.51094,340.002488 613.30994,341.221908 C614.51357,343.058888 614.56979,344.564998 613.63779,350.005968 C612.54491,356.386138 612.6215,356.890098 616.33058,367.725868 C620.62897,380.283278 620.64762,380.184828 613.25064,383.989238 C610.70159,385.300258 607.94353,387.399248 607.12161,388.653668 C605.2272,391.544898 600.39917,391.555618 589.85722,388.691968 L589.85722,388.692008 Z" id="path3972-path"></path>
            <path d="M249.51512,387.258988 C249.14363,386.887498 249.13164,383.082798 249.48842,378.804108 C249.92409,373.580158 249.73773,370.060258 248.92113,368.088808 C247.88376,365.584378 247.99481,364.584978 249.67677,361.288058 C250.76121,359.162368 252.17785,355.457248 252.82486,353.054448 C253.47186,350.651658 254.41762,347.590538 254.92655,346.251968 C255.84972,343.823848 255.85916,343.822398 258.99637,345.626308 C263.39428,348.155138 267.85973,354.568058 267.845345,358.334458 C267.83031,362.245078 265.65586,370.492888 263.58415,374.497078 C261.48446,378.555428 253.00193,387.934418 251.43122,387.934418 C250.74885,387.934418 249.88661,387.630468 249.51512,387.258988 Z" id="path3972-path"></path>
            <path d="M632.35722,383.071748 C627.85558,380.732608 624.54369,378.206128 623.07785,375.992948 C620.37978,371.919318 616.40967,359.467588 617.33271,357.974078 C617.75417,357.292138 624.22202,357.041168 635.99563,357.249908 C655.95309,357.603738 656.35716,357.742958 655.3959,363.934418 C653.38233,376.903848 652.89196,379.187638 651.85155,380.441248 C650.20985,382.419378 642.26458,386.956878 640.67915,386.821748 C639.95209,386.759748 636.20722,385.072278 632.35722,383.071748 Z" id="path3972-path"></path>
            <path d="M519.35722,380.135388 C517.70722,379.101698 514.14384,375.596108 511.43861,372.345188 C508.73337,369.094258 504.1521,363.959418 501.258,360.934418 C496.70995,356.180648 495.84418,354.620348 494.87689,349.434418 C493.86489,344.008688 493.98186,342.812288 496.09906,336.934418 L498.44036,330.434418 L503.33777,329.867478 C506.03134,329.555668 508.38562,328.849218 508.56949,328.297608 C508.75336,327.745988 510.42497,324.933568 512.28418,322.047778 C515.54199,316.991148 515.65899,316.467908 515.51089,307.617658 L515.35722,298.434418 L509.88753,298.124538 C506.87921,297.954108 503.85423,297.346898 503.16535,296.775188 C502.47648,296.203468 500.7226,293.192918 499.26784,290.085058 C495.91462,282.921468 495.02157,272.311518 497.37574,267.605878 C498.24839,265.861578 499.39069,261.059418 499.91419,256.934418 C500.43769,252.809418 501.13047,248.017988 501.4537,246.286798 C501.84478,244.192188 501.3415,241.556978 499.9493,238.409688 C498.79866,235.808458 497.85722,233.259518 497.85722,232.745378 C497.85722,232.231228 496.73666,229.441908 495.3671,226.546878 C492.08217,219.603108 491.26958,215.415628 492.99959,214.346428 C493.73872,213.889618 498.17155,213.455288 502.85034,213.381238 C507.52912,213.307238 512.30143,212.942708 513.45546,212.571288 C515.56698,211.891698 517.85722,208.128058 517.85722,205.337708 C517.85722,204.511268 518.54378,202.507448 519.3829,200.884758 C520.62825,198.476518 521.54695,197.934418 524.3829,197.934418 C528.53022,197.934418 531.85722,200.834268 531.85722,204.449118 C531.85722,206.213068 532.82748,207.555398 535.10722,208.945378 C539.62575,211.700378 542.39937,211.430958 545.5148,207.934418 C548.68428,204.377218 550.91143,204.175288 554.85098,207.087928 C556.45301,208.272358 559.13335,209.202498 560.8073,209.154898 C563.03788,209.091498 565.25076,210.263318 569.09187,213.542038 C574.72367,218.349248 578.26754,219.796148 580.68112,218.273708 C581.514,217.748328 583.68015,213.788688 585.49478,209.474498 C591.61331,194.927958 596.07599,193.248408 601.54366,203.434418 C603.31505,206.734418 604.78965,210.559418 604.82056,211.934418 C604.85146,213.309418 605.99736,216.841598 607.36699,219.783718 C608.73662,222.725828 609.85722,226.393738 609.85722,227.934628 C609.85722,229.680938 611.49981,232.939488 614.21793,236.585338 C616.61632,239.802328 619.10211,243.437478 619.74189,244.663448 C620.51001,246.135318 622.7692,247.434378 626.3928,248.487788 C632.20773,250.178228 637.85722,254.152518 637.85722,256.552728 C637.85722,257.345018 636.07402,260.249178 633.89455,263.006418 C629.85086,268.122058 628.43464,272.345458 629.02556,277.526488 C629.38013,280.635308 630.36606,280.852188 637.48397,279.387158 C640.23702,278.820518 641.37243,279.389158 646.98397,284.144638 C650.48926,287.115208 654.18887,291.294388 655.20534,293.431708 C656.97882,297.160808 656.98119,297.370598 655.26424,298.626088 C652.87722,300.371518 648.93324,300.275998 643.2139,298.334228 C638.90118,296.870018 638.21697,296.869318 635.16237,298.326228 C632.37963,299.653228 631.09809,299.723968 627.46145,298.751318 C623.61526,297.722618 622.50025,297.841978 618.04265,299.759588 C614.26,301.386838 610.98351,301.934688 605.03414,301.934688 C598.25456,301.934688 596.11729,302.386038 590.54161,304.995208 C585.9811,307.129328 581.55942,308.301908 575.93384,308.869028 C571.49667,309.316348 567.18923,310.244208 566.36175,310.930948 C565.32451,311.791788 564.85394,314.082648 564.84658,318.307128 C564.83638,324.149228 564.63183,324.655978 560.45501,329.184688 C557.15647,332.761128 555.35459,333.934688 553.16184,333.934688 C551.18042,333.934688 549.22801,334.988688 547.05342,337.232298 C544.31043,340.062348 543.85725,341.250438 543.85725,345.611718 C543.85725,350.186868 543.45845,351.104458 539.85725,354.815248 C535.22837,359.584998 534.91968,361.955288 538.28591,366.880938 C540.30187,369.830788 540.62015,371.237268 540.15891,375.157608 C539.52838,380.516848 539.53423,380.513478 529.35725,381.403158 C523.53125,381.912468 521.85411,381.699888 519.35725,380.135658 L519.35722,380.135388 Z" id="path3972-path"></path>
            <path d="M760.649251,371.066538 C758.059871,370.673438 755.607731,370.018258 755.200051,369.610578 C754.137461,368.547988 754.834191,359.676788 756.100491,358.145728 C756.686701,357.436948 759.282611,355.946638 761.869171,354.833928 C764.455731,353.721218 768.260771,351.081378 770.324811,348.967608 L774.077621,345.124388 L773.452991,336.779398 C773.109441,332.189658 772.865741,323.709418 772.911431,317.934418 C773.005031,306.098728 770.988611,299.560978 766.296101,296.486328 C762.527871,294.017288 759.857221,291.131278 759.857221,289.528228 C759.857221,288.754818 762.086691,286.520308 764.811601,284.562658 C767.536521,282.605008 770.435221,279.975288 771.253171,278.718848 C772.633561,276.598468 774.448321,269.363318 776.968091,255.934418 C778.957071,245.334328 780.937411,239.927988 783.429311,238.295228 C786.742161,236.124568 790.318911,237.220608 791.830381,240.869618 C792.589811,242.703048 795.692501,245.614768 799.979701,248.517348 C806.640851,253.027158 807.104131,253.180758 812.228441,252.578498 C817.614151,251.945518 825.924351,253.846118 828.553721,256.312218 C830.332161,257.980218 832.263201,266.193678 831.535161,268.993468 C831.186061,270.335988 829.045401,273.865908 826.778141,276.837738 C823.111631,281.643628 822.754981,282.583448 823.552451,285.337738 C824.362851,288.136678 824.829241,288.430818 828.403141,288.396928 C830.577881,288.376328 834.214351,288.008608 836.484181,287.579818 C840.438791,286.832758 840.699791,286.943558 842.732791,290.233118 C844.555991,293.183038 844.916091,295.619458 845.292391,307.550228 C845.533191,315.186528 846.209491,323.008888 846.795291,324.933238 C847.800891,328.236908 847.669291,328.599448 844.435291,331.433238 C842.551491,333.083888 840.291591,335.892498 839.413131,337.674608 C837.610261,341.332218 831.476881,344.934418 827.052051,344.934418 C825.390361,344.934418 823.360491,345.825818 822.264571,347.036798 C821.218121,348.193108 819.153061,349.764318 817.675531,350.528368 C815.171301,351.823368 814.847151,351.737078 812.895511,349.255968 C811.222211,347.128708 809.753171,346.507408 805.577971,346.161168 C799.302691,345.640768 798.270951,346.528768 794.404871,355.777658 C790.421551,365.307038 787.842111,368.791348 783.857221,370.025458 C779.357961,371.418858 766.707981,371.986328 760.649251,371.066538 Z" id="path3972-path"></path>
            <path d="M618.10722,353.878608 C615.59134,352.894908 615.41904,351.949068 616.84803,346.966468 C617.6565,344.147488 617.47247,342.808848 615.84803,339.692278 C614.75308,337.591578 613.85722,335.050658 613.85722,334.045778 C613.85722,333.040898 612.27174,329.176938 610.33392,325.459208 C607.48907,320.001298 606.93581,318.032398 607.46075,315.234238 C607.96364,312.553628 607.61883,311.103248 605.93827,308.830178 C604.74334,307.213938 604.03782,305.451208 604.37046,304.912998 C604.7031,304.374778 607.18959,303.934418 609.896,303.934418 C612.60241,303.934418 616.64,303.204898 618.86842,302.313258 C622.32874,300.928718 623.57668,300.875928 627.41864,301.951618 C631.32629,303.045688 632.4231,302.982988 635.76887,301.474258 C638.87045,300.075638 640.04839,299.966368 641.81746,300.913138 C643.02575,301.559798 646.229,302.746558 648.93579,303.550388 C651.64258,304.354218 653.85722,305.389868 653.85722,305.851838 C653.85722,307.882438 659.58284,309.085388 663.81882,307.944758 C667.31393,307.003618 668.43016,307.079808 670.43993,308.396658 C671.76944,309.267788 672.85059,310.082648 672.842535,310.207468 C672.70958,312.255648 668.79154,322.530248 667.62298,323.895018 C666.75513,324.908598 663.6403,326.437298 660.70114,327.292118 C651.78072,329.886528 651.39678,330.427678 651.72135,339.948798 C651.87577,344.478898 652.39513,349.219028 652.87547,350.482418 C654.41222,354.524378 652.0821,355.286348 640.59441,354.498428 C634.96395,354.112248 629.23222,353.725618 627.85722,353.639258 C626.48222,353.552858 624.23222,353.769358 622.85722,354.120298 C621.48222,354.471228 619.34472,354.362468 618.10722,353.878608 Z" id="path3972-path"></path>
            <path d="M210.95384,351.684418 C210.4842,350.446918 209.54326,346.734418 208.86285,343.434418 C208.18244,340.134418 206.78197,335.772988 205.75071,333.742348 C203.89393,330.086218 198.21488,324.934418 196.04134,324.934418 C193.40242,324.934418 184.12742,329.920848 181.44012,332.784328 C179.39966,334.958568 176.09398,336.671498 170.44012,338.484278 C165.99453,339.909658 160.78222,342.148028 158.85722,343.458438 C153.23364,347.286578 146.62605,349.826588 140.382,350.560448 L134.56486,351.244138 L135.23093,348.339278 C137.22709,339.633718 137.10729,338.614878 133.42339,332.968138 C128.51612,325.446198 128.65356,322.294388 134.10722,317.286628 C140.62351,311.303138 144.72564,309.226958 152.35722,308.049918 C161.31864,306.667768 179.69339,300.378548 182.57049,297.708668 C183.78779,296.579038 185.39516,293.805218 186.14242,291.544608 C187.30942,288.014238 188.40787,286.939238 193.92915,283.924178 C201.6312,279.718248 202.76932,276.871758 198.20509,273.229828 C194.40344,270.196388 195.87183,267.799288 202.39149,266.395668 C205.04518,265.824358 207.32121,264.924358 207.44933,264.395668 C207.57745,263.866978 207.94732,262.228388 208.27125,260.754348 C209.12722,256.859338 210.9501,255.450158 219.08133,252.397608 C227.34305,249.296068 231.31825,246.097548 232.91166,241.269468 C233.74387,238.747828 234.58545,237.934418 236.36219,237.934418 C241.66732,237.934418 245.74091,248.543518 243.84963,257.434418 C242.12583,265.538028 242.11562,265.459628 244.85722,265.173578 C246.23222,265.030118 251.62411,262.861538 256.8392,260.354518 L266.32118,255.796288 L274.83043,257.062258 C281.53628,258.059928 284.21641,258.975278 287.47656,261.381318 C293.55949,265.870638 294.92007,268.608148 294.17886,274.866458 C293.60388,279.721268 293.19926,280.358788 288.45867,283.879238 C281.70264,288.896378 280.39373,290.472418 277.4444,297.141368 C275.3441,301.890528 273.0779,304.409948 263.08313,313.107388 C246.221,327.780788 235.15491,336.750358 229.2095,340.563488 C226.37825,342.379338 221.73576,346.130638 218.89284,348.899718 C216.04993,351.668808 213.29277,353.934418 212.76581,353.934418 C212.23886,353.934418 211.42347,352.921918 210.95384,351.684418 L210.95384,351.684418 Z" id="path3972-path"></path>
            <path d="M280.35722,346.073858 C276.49299,343.686948 274.28329,341.063868 273.50049,337.934418 C273.15654,336.559418 270.19366,332.100188 266.9163,328.025018 C260.54968,320.108538 260.35718,318.825388 265.06661,315.695138 C266.32645,314.857758 269.74618,311.869028 272.66603,309.053528 C275.58587,306.238018 278.74584,303.934418 279.68818,303.934418 C280.63053,303.934418 283.01053,305.260698 284.97709,306.881698 C288.41294,309.713818 288.57743,310.150268 289.18674,318.051698 C289.69637,324.660328 290.33787,327.020488 292.45477,330.075188 C295.51832,334.495888 295.31021,336.272228 290.91892,343.184418 C287.53001,348.518808 285.30213,349.128308 280.35722,346.073858 Z" id="path3972-path"></path>
            <path d="M892.344791,338.896528 C889.051591,337.172048 885.137791,335.101168 883.647391,334.294578 C881.825491,333.308528 876.319691,332.630558 866.842391,332.225228 C852.935391,331.630448 852.729691,331.587768 851.436391,329.028408 C848.885991,323.981418 847.536491,315.301918 847.622791,304.500388 C847.692791,295.706248 847.347391,292.855378 845.856791,289.933488 C843.241291,284.806828 841.463091,283.594558 837.616381,284.315898 C827.874381,286.142748 827.159981,286.165788 826.586611,284.671608 C826.263921,283.830698 827.704241,280.852098 829.904551,277.810028 C833.459151,272.895578 833.795151,271.876798 833.821231,265.934418 C833.858931,257.330618 831.736521,253.762768 825.269731,251.559308 C822.646901,250.665618 817.583001,249.934418 814.016631,249.934418 C808.511941,249.934418 806.823331,249.479458 802.839421,246.922988 C797.683521,243.614458 795.117321,241.095078 793.422161,237.677528 C792.548691,235.916578 791.308561,235.369508 787.652801,235.132458 C783.690591,234.875538 782.469671,234.247848 779.466601,230.923808 C777.226501,228.444288 775.349551,224.901428 774.328711,221.225758 C773.444081,218.040518 772.540221,214.871918 772.320141,214.184418 C771.699021,212.244138 766.718101,212.696578 758.101041,215.476008 C751.600261,217.572828 748.658291,217.966568 741.289291,217.726008 L732.357221,217.434418 L732.575471,214.465428 C732.695501,212.832488 733.640111,210.362788 734.674601,208.977198 C736.349101,206.734388 737.312701,206.445628 743.456351,206.345558 C757.545661,206.116068 765.726131,202.078048 769.929461,193.277998 C771.546791,189.891968 774.466451,185.525188 776.417591,183.574048 C779.611811,180.379828 779.900431,179.648458 779.315541,176.230468 C778.958271,174.142638 777.133991,169.891588 775.261591,166.783688 C773.389191,163.675788 771.857221,160.780368 771.857221,160.349418 C771.857221,159.470348 774.820881,152.704448 778.151211,145.980488 C779.937861,142.373248 781.497811,140.947518 786.357221,138.480488 C793.605691,134.800598 794.403661,132.248938 790.427691,125.464448 C789.013931,123.052058 787.857221,120.589298 787.857221,119.991648 C787.857221,119.394008 789.319721,118.013318 791.107221,116.923458 C795.396161,114.308438 802.506851,114.313718 805.857221,116.934458 C809.363921,119.677438 811.075921,119.429128 815.785431,115.494438 C819.578061,112.325778 820.157451,112.141628 823.130051,113.159968 C824.904991,113.768018 827.257221,114.812458 828.357221,115.480938 C829.457221,116.149408 832.616101,116.941448 835.376961,117.241018 C838.137821,117.540588 842.703191,118.944158 845.522191,120.360068 C848.341191,121.775988 851.787191,122.934458 853.179891,122.934458 C856.335391,122.934458 859.484691,119.108238 860.900591,113.553908 C862.468091,107.405118 863.980091,103.934458 865.091391,103.934458 C865.636691,103.934458 868.922791,106.859458 872.393691,110.434458 C880.244591,118.520628 882.823791,118.859138 886.210591,112.247868 C888.435391,107.904908 889.495991,107.462948 892.651191,109.564028 C896.410791,112.067548 904.49539,114.984998 909.85719,115.773058 L914.35719,116.434458 L914.31419,121.691838 C914.25719,128.650538 912.92539,129.799648 903.72159,130.831818 C895.015391,131.808188 893.293591,132.593158 885.857291,138.976598 C876.760691,146.785268 875.945391,147.019428 860.441891,146.275898 L846.908791,145.626868 L844.133091,148.859198 C842.606391,150.636978 838.994821,154.752278 836.107321,158.004308 C829.356161,165.607758 829.031071,168.090448 834.039691,173.794948 C836.427901,176.514968 836.920001,177.828228 836.483821,180.317568 C836.183451,182.031858 835.642381,186.194738 835.281461,189.568418 C834.702141,194.983558 834.873221,195.950358 836.741281,197.818418 C838.466351,199.543488 840.070621,199.934458 845.423991,199.934458 C850.796291,199.934458 852.569791,200.369668 855.173991,202.327068 C861.418991,207.020908 883.426191,213.012448 889.147391,211.576488 C894.818091,210.153248 900.67809,200.944868 903.30779,189.325228 C904.16549,185.535308 905.61559,180.730788 906.53029,178.648528 C908.08169,175.116908 908.08139,174.627618 906.53029,171.364598 C904.31209,166.713118 904.38139,166.170568 907.86219,160.934458 C909.50749,158.459458 910.85559,155.286958 910.85789,153.884458 C910.86789,149.711768 912.34699,149.088268 920.86969,149.672428 C928.28379,150.180598 928.81119,150.076348 931.27099,147.616558 C934.50529,144.382228 934.78569,139.080148 931.86219,136.434458 C929.21639,134.040078 929.33049,130.782618 932.15289,128.131098 C934.10669,126.295588 935.24639,126.058788 939.90289,126.520928 C951.03859,127.626128 951.74259,128.257728 948.79249,134.496148 C946.08699,140.217258 946.35579,141.298878 951.57869,145.707438 C955.92699,149.377678 956.20649,149.883388 955.15839,152.183738 C954.50189,153.624578 951.98069,155.639188 949.19189,156.951458 C942.14089,160.269178 936.86219,165.609528 936.86219,169.424998 C936.86219,171.819188 935.72069,173.620408 931.76269,177.472048 C927.87899,181.251318 925.35969,185.176298 921.19629,193.934458 C918.18949,200.259458 914.12499,208.538118 912.16399,212.331478 C908.71839,218.996758 908.61729,219.500758 909.15409,227.331478 C909.45959,231.788118 910.86889,239.226258 912.28589,243.860688 C915.67689,254.951548 915.60089,258.703858 911.86219,264.780038 C908.30449,270.562068 908.25139,271.529428 910.90569,282.210958 C913.11249,291.091828 914.62959,294.431398 919.01769,300.068498 C921.42129,303.156238 921.63109,303.881328 920.41349,304.891888 C918.29689,306.648468 909.27159,320.193038 906.26789,326.120508 C904.31559,329.973288 903.80299,332.168368 904.22929,334.850908 C905.36939,342.025028 901.10039,343.478858 892.349791,338.896568 L892.344791,338.896528 Z" id="path3972-path"></path>
            <path d="M743.904781,334.094128 C742.784361,330.331968 741.042381,326.506968 740.033701,325.594128 C737.201181,323.030738 724.691311,323.487678 714.664551,326.520768 C713.633601,326.832628 711.483471,325.695358 709.164551,323.611628 C705.940451,320.714538 704.438111,320.119448 699.35722,319.726868 C689.93487,318.998848 686.1506,316.907068 683.73342,311.090688 L681.69242,306.179498 L672.94499,305.495198 C668.1339,305.118828 662.99013,305.113938 661.5144,305.484298 C658.88557,306.144118 655.85722,304.702108 655.85722,302.790538 C655.85722,302.296088 656.98222,301.378958 658.35722,300.752468 C661.54779,299.298738 661.50081,298.477848 657.84024,291.719328 C655.88886,288.116488 652.97495,284.756038 649.59024,282.205038 C641.88507,276.397798 640.09528,275.640738 635.72396,276.339738 C632.01351,276.933058 631.85865,276.846418 631.89266,274.196238 C631.96256,268.745748 639.31742,259.687888 645.63105,257.276688 C649.93606,255.632588 650.1681,255.639088 651.48548,257.440708 C652.23994,258.472488 652.85722,260.385248 652.85722,261.691288 C652.85722,267.795838 656.22124,269.166678 665.26557,266.747688 C669.08373,265.726488 670.2625,265.813428 673.71653,267.370978 C676.97319,268.839528 679.01579,269.045228 684.54382,268.461348 C690.99258,267.780218 691.59175,267.492658 695.73944,263.088058 C702.502251,255.906388 707.857221,248.462158 707.857221,246.242488 C707.857221,245.136888 706.706061,242.067258 705.299081,239.421108 L702.740951,234.609908 L708.469991,228.820458 C711.620961,225.636268 716.102891,222.021018 718.429831,220.786578 C722.499531,218.627608 722.970561,218.592468 730.799501,219.863868 C741.208341,221.554228 753.099831,220.578708 761.743031,217.325418 C769.257251,214.497078 769.699741,214.715738 771.575731,222.184298 C772.301041,225.071868 774.256001,229.388308 775.920071,231.776388 L778.945661,236.118368 L777.302651,241.770128 C776.398991,244.878598 775.315021,249.449708 774.893831,251.928158 C773.090071,262.541988 770.513821,273.620788 769.290891,276.022748 C768.566081,277.446328 765.472001,280.333628 762.415141,282.438968 C754.822071,287.668518 754.783681,290.351378 762.201431,297.374518 C770.219181,304.965728 771.341911,308.146628 770.042151,319.588798 C769.458931,324.723108 768.736381,329.320928 768.436481,329.806168 C768.136591,330.291408 765.885281,331.193528 763.433571,331.810878 C760.981871,332.428218 758.679291,333.413288 758.316741,333.999918 C757.080091,336.000848 749.562021,340.934418 747.749531,340.934418 C746.380751,340.934418 745.447351,339.273768 743.904781,334.094128 L743.904781,334.094128 Z" id="path3972-path"></path>
            <path d="M677.32016,265.234248 C670.93629,262.836048 668.49362,262.667948 663.13834,264.258288 C657.78961,265.846698 655.85722,265.216468 655.85722,261.883638 C655.85722,258.620618 653.65364,254.004578 651.8178,253.421908 C650.78806,253.095078 648.05865,253.393008 645.75246,254.083948 C641.61933,255.322268 641.52036,255.293498 638.83071,252.071728 C636.6209,249.424738 635.88863,247.139028 634.97964,240.051098 C633.81179,230.944758 633.45911,216.934418 634.39771,216.934418 C634.69498,216.934418 636.15748,217.824498 637.64771,218.912368 C640.16598,220.750698 641.05663,220.817588 650.26629,219.860028 C657.13861,219.145488 662.25394,219.152248 666.95784,219.882028 C670.68821,220.460818 674.10413,220.934198 674.54877,220.933978 C674.99342,220.933768 678.60475,224.398378 682.57395,228.633108 C689.19735,235.699598 690.10076,236.323838 693.56203,236.225728 C695.63626,236.166928 698.15031,236.556038 699.1488,237.090418 C701.285191,238.233778 704.848121,243.773038 704.853482,245.959428 C704.855481,246.798208 701.662061,251.410708 697.75687,256.209428 C692.50995,262.656858 690.04712,264.934368 688.32197,264.934368 C687.03797,264.934368 684.92895,265.336798 683.63526,265.828658 C682.03685,266.436378 680.0132,266.245888 677.32016,265.234198 L677.32016,265.234248 Z" id="path3972-path"></path>
            <path d="M384.30328,254.184418 C386.29084,246.137208 387.08971,240.982648 386.56233,239.608338 C385.85199,237.757208 375.88131,231.229548 372.44787,230.367818 C369.25764,229.567118 367.24072,227.192038 366.40348,223.250078 C365.8152,220.480298 366.09363,219.842268 368.54219,218.349088 C371.24167,216.702898 382.4458,209.453248 393.66362,202.094238 C399.03331,198.571658 406.85722,190.554688 406.85722,188.575078 C406.85722,187.982298 409.09666,185.229698 411.83376,182.458178 C418.57437,175.632778 419.04674,172.774998 414.41553,166.838778 C412.44359,164.311168 409.71127,161.733318 408.3437,161.110218 C404.58925,159.399568 405.31439,157.486528 411.10722,153.819608 C417.46894,149.792588 428.85722,139.150478 428.85722,137.232608 C428.85722,136.470978 429.64472,133.166128 430.60722,129.888518 C432.83719,122.294758 435.97684,120.461238 446.27111,120.740978 C450.07375,120.844308 453.37826,121.122128 453.61447,121.358338 C454.64539,122.389248 447.29022,144.537918 445.38529,146.138908 C444.26985,147.076378 442.04409,148.918208 440.43914,150.231858 C437.87256,152.332618 437.54334,153.209098 437.70596,157.508468 C437.97369,164.586728 439.02022,165.220528 450.63063,165.335978 C459.71803,165.426378 460.85474,165.659848 464.49711,168.184418 C469.82172,171.874968 474.41776,171.803248 480.51827,167.934418 C483.12005,166.284418 485.89786,164.934418 486.69117,164.934418 C487.48448,164.934418 490.08854,163.132378 492.47796,160.929888 C496.48212,157.238978 498.67258,156.004618 509.04251,151.595438 C511.06941,150.733618 513.74154,148.657328 514.98056,146.981458 C517.88877,143.047888 520.59658,143.100028 526.03062,147.194218 C528.41025,148.987108 531.53466,151.208128 532.97375,152.129818 C536.84204,154.607328 537.07711,157.251308 533.86576,162.162838 C532.32965,164.512208 530.74736,168.009418 530.34955,169.934418 C529.95175,171.859418 529.17314,173.996918 528.6193,174.684418 C527.07847,176.597128 517.52844,176.187898 511.1169,173.934418 C503.65975,171.313438 503.39922,171.350618 501.02506,175.374528 C499.90872,177.266588 497.19439,180.006448 494.99323,181.463108 C492.79206,182.919768 490.53674,185.414988 489.9814,187.008028 C488.66111,190.795428 482.29621,199.102858 479.53013,200.648978 C478.33503,201.316998 473.6639,201.879498 469.14985,201.898978 L460.94248,201.934378 L458.14985,198.334568 C456.6139,196.354678 454.62466,193.785918 453.72931,192.626228 C452.13542,190.561758 451.81586,190.541138 438.43624,191.639338 C430.89485,192.258338 424.11819,193.302828 423.31416,193.970118 C420.36572,196.417098 421.66343,199.568608 427.81329,204.896318 C434.40079,210.603168 437.85722,215.456228 437.85722,218.998658 C437.85722,220.279178 439.02063,223.005678 440.44257,225.057548 C441.86452,227.109408 443.2677,230.575878 443.56076,232.760798 C444.02186,236.198558 443.75763,236.953528 441.5981,238.368498 C436.36306,241.798638 433.17362,242.005508 425.91163,239.385968 C422.17362,238.037638 417.96681,236.934418 416.56316,236.934418 C413.50584,236.934418 408.86679,241.317378 404.19622,248.618648 C399.61186,255.785168 397.65242,256.934418 390.01814,256.934418 L383.62407,256.934418 L384.30328,254.184418 L384.30328,254.184418 Z" id="path3972-path"></path>
            <path d="M612.3183,225.434418 C611.94124,223.234418 611.00623,220.434678 610.2405,219.212768 C609.47477,217.990868 608.38057,214.810318 607.80894,212.144898 C606.69016,206.928228 602.87837,198.720258 600.20019,195.760898 C598.20638,193.557768 594.75152,193.420598 590.9371,195.393108 C588.17282,196.822578 585.36037,201.640438 582.95695,209.063498 C582.31069,211.059498 580.9104,213.481298 579.8452,214.445298 C577.99935,216.115768 577.77822,216.115188 575.13284,214.432898 C573.60625,213.462108 571.14509,211.377798 569.66359,209.801098 C567.74628,207.760628 566.0119,206.934418 563.64573,206.934418 C561.74763,206.934418 558.74312,205.861888 556.64241,204.434418 C551.65516,201.045498 547.93811,201.196778 544.35722,204.934418 C542.77642,206.584418 540.75208,207.934418 539.85869,207.934418 C537.37433,207.934418 533.85722,204.144178 533.85722,201.466888 C533.85722,198.636848 531.44105,195.934418 528.91079,195.934418 C527.91883,195.934418 525.7308,195.659138 524.04851,195.322678 C519.97867,194.508708 516.34927,198.062498 515.37777,203.812798 C514.34885,209.902918 512.34935,210.813368 500.09474,210.771738 C490.79859,210.740138 489.69266,210.537568 488.34962,208.620108 C485.70284,204.841298 485.38205,200.068398 487.57546,197.101598 C488.66,195.634648 490.34697,192.888118 491.32426,190.998208 C492.30156,189.108288 495.94129,184.763498 499.41255,181.343128 L505.72393,175.124268 L509.54058,176.485448 C511.63973,177.234098 517.27889,177.866388 522.07204,177.890528 C531.51942,177.938128 532.85722,177.164108 532.85722,171.650638 C532.85722,170.322248 534.19903,167.255168 535.83902,164.834898 C537.78709,161.959988 538.82713,159.163818 538.83902,156.769408 C538.85452,153.641468 538.16115,152.490508 534.10722,148.915248 C531.49472,146.611218 527.28331,143.672618 524.74853,142.385018 L520.13983,140.043938 L519.63012,133.693988 C518.93059,124.979308 516.86734,121.317338 511.80166,119.799628 C508.10206,118.691198 507.47259,117.970848 504.40857,111.339178 C500.62562,103.151488 498.86486,101.835068 488.47292,99.425018 C481.7588,97.867908 477.51576,98.474778 476.6235,101.119798 C476.27181,102.162348 475.42228,102.075588 472.51863,100.700598 C470.50485,99.746998 468.85722,98.563558 468.85722,98.070738 C468.85722,97.577928 471.21972,95.390428 474.10722,93.209638 C476.99472,91.028838 480.01281,87.937278 480.81409,86.339488 C483.44102,81.101268 484.95195,79.934418 489.10792,79.934418 C491.27531,79.934418 494.32606,79.179828 495.88735,78.257548 C499.65044,76.034638 500.84665,77.119528 503.77328,85.409568 C506.19104,92.258158 509.50928,95.942698 513.24208,95.923598 C514.40541,95.917598 517.56624,95.242638 520.26615,94.423598 C525.96904,92.693568 542.38041,92.422438 546.50376,93.990128 C550.17237,95.384938 552.96676,93.863508 555.71393,88.975578 C558.49369,84.029658 566.26393,76.934418 568.90062,76.934418 C571.71509,76.934418 574.7189,75.298298 578.53857,71.684798 L581.71992,68.675158 L588.53857,70.469298 C597.95287,72.946418 599.98865,74.118808 605.17946,80.052688 L609.70287,85.223618 L620.53005,85.389638 C629.44188,85.526278 631.27796,85.810278 630.90918,86.995028 C630.66277,87.786698 630.53949,90.115688 630.63524,92.170568 C630.79527,95.605058 630.37468,96.227808 625.42613,99.883518 L620.04293,103.860318 L619.32853,112.436558 C618.93562,117.153488 618.88667,122.717128 619.21977,124.800198 C620.04148,129.938878 625.49455,141.845198 628.47827,145.015328 L630.90741,147.596248 L627.88232,151.402838 C623.82709,156.505678 623.95337,159.766208 628.35722,163.665088 C631.08056,166.076148 631.85722,167.528378 631.85722,170.209538 C631.85722,172.235988 632.88698,175.172758 634.35722,177.339278 C635.73222,179.365458 636.85722,181.594058 636.85722,182.291738 C636.85722,183.801838 631.70364,188.934418 630.18736,188.934418 C627.96108,188.934418 623.85722,193.152368 623.85722,195.440548 C623.85722,196.739088 625.19167,199.968928 626.82266,202.617968 C629.56727,207.075768 629.87932,208.588618 631.01315,222.934418 C633.01063,248.207618 633.1207,247.541038 627.23041,245.842648 C622.0128,244.338228 613.58033,232.797818 612.3183,225.434418 Z" id="Aargau"></path>
            <path d="M237.0885,233.128258 C236.41209,231.099018 241.60683,225.121098 247.37437,221.291668 C250.31274,219.340698 253.85285,216.099688 255.24128,214.089428 C258.01637,210.071478 262.83923,196.779398 262.85025,193.118678 C262.86445,188.401728 264.54868,186.934418 269.94877,186.934418 C274.19311,186.934418 275.38671,186.488358 277.66359,184.051308 C279.14509,182.465598 281.80638,180.435948 283.57758,179.540958 C285.34877,178.645978 287.26127,177.047958 287.82758,175.989808 C289.2575,173.317978 289.13169,161.608888 287.65722,160.134418 C285.99952,158.476718 276.28682,158.631658 268.48851,160.440198 C264.91746,161.268388 259.15204,162.055888 255.67646,162.190198 C249.8539,162.415228 249.3328,162.262898 249.04654,160.252098 C248.38422,155.599758 256.67009,145.301448 269.5311,134.792338 C276.26113,129.293028 276.96742,128.388328 276.35891,126.046468 C274.95938,120.660368 274.70893,115.080018 275.77716,113.084018 C277.6408,109.601778 283.04784,109.292398 289.11866,112.320648 C293.45248,114.482448 295.56617,114.900188 301.35722,114.739418 C309.2504,114.520278 319.60804,117.121498 320.5429,119.557708 C320.8679,120.404628 320.12896,122.885448 318.90082,125.070638 C316.0955,130.062018 316.7461,133.639508 320.62245,134.537478 C322.12657,134.885918 325.27774,136.266438 327.62503,137.605308 C331.6701,139.912548 332.45299,140.004598 342.62503,139.368828 C352.9065,138.726218 357.05289,139.228988 369.09617,142.578528 C370.05259,142.844538 372.39111,145.395928 374.29288,148.248298 C378.6953,154.851238 379.896,155.534478 388.64071,156.412678 C393.12169,156.862678 396.70302,157.811888 398.11733,158.924378 C399.36774,159.907958 401.95825,161.368798 403.87401,162.170688 C407.54042,163.705358 414.866,171.061568 414.844842,173.187298 C414.83775,173.873218 413.05595,176.346918 410.88488,178.684418 C407.23756,182.611328 406.55032,182.934418 401.84475,182.934418 C399.04375,182.934418 393.54666,182.205368 389.62899,181.314318 C377.81587,178.627478 367.35533,180.491698 355.99709,187.308018 C345.56885,193.566218 344.15216,193.754208 334.85227,190.113968 C325.33932,186.390338 324.0397,186.290508 318.94072,188.891818 C314.73461,191.037618 313.85722,192.487738 313.85722,197.293698 C313.85722,202.458438 311.58124,204.702038 305.60031,205.433138 C301.87621,205.888378 299.28699,205.622138 296.66312,204.514168 C294.63136,203.656238 292.28905,203.215218 291.45798,203.534128 C290.62691,203.853038 289.21141,206.661068 288.31244,209.774188 C285.75198,218.640968 274.96056,227.927978 267.20609,227.938158 C264.2229,227.942158 257.85722,231.255718 257.85722,232.804708 C257.85722,234.041498 253.57283,236.743378 250.71138,237.311118 C249.41659,237.568018 245.91613,237.015098 242.93258,236.082408 C239.94903,235.149718 237.3192,233.820348 237.0885,233.128258 Z" id="path3972-path"></path>
            <path d="M689.56177,231.640958 C688.34927,230.379558 685.28007,227.048998 682.74134,224.239708 C678.72785,219.798488 677.35756,218.967578 672.24134,217.872718 C665.1443,216.353978 657.65579,216.186148 648.62883,217.343518 L641.90043,218.206178 L637.62883,214.359678 C635.13578,212.114748 632.89172,208.972768 632.23922,206.813548 C631.62432,204.778748 630.16182,201.766558 628.98922,200.119798 C625.83278,195.686978 626.30474,194.248068 631.83423,191.446068 C639.71948,187.450308 641.86515,181.474158 637.34377,176.100798 C635.96137,174.457908 634.43814,171.014548 633.95882,168.448888 C633.4406,165.674948 632.02732,162.677628 630.47228,161.054518 C627.17322,157.611048 627.19882,157.037918 630.85722,152.434418 C634.50388,147.845698 634.64112,145.494158 631.38672,143.361788 C628.70261,141.603098 624.39215,133.199818 622.35584,125.756038 C619.97501,117.052838 622.34684,102.934418 626.19043,102.934418 C628.39006,102.934418 633.85722,96.828238 633.85722,94.371528 C633.85722,90.317058 637.88154,87.115468 647.35722,83.631488 C656.69402,80.198558 657.39311,79.419028 655.38409,74.680978 C654.83233,73.379718 655.829,71.755948 659.24891,68.384418 C663.12049,64.567608 663.85722,63.234038 663.85722,60.042848 C663.85722,55.799028 666.52882,52.534188 669.53282,53.106978 C671.12492,53.410558 671.42089,54.818968 671.85722,64.167938 C672.28701,73.376808 672.65664,75.180298 674.48969,77.012418 C678.64915,81.169758 683.42852,76.349738 684.55189,66.864618 C685.04454,62.705018 685.61715,61.545288 687.63147,60.627508 C689.98049,59.557218 690.07645,59.185048 689.52526,53.282468 C688.95064,47.128948 688.98121,47.032738 692.49051,43.951528 C696.41922,40.502078 698.13764,40.931238 699.32401,45.658108 C699.68866,47.111018 701.119331,50.231908 702.503271,52.593418 C704.799851,56.512248 705.454771,56.944798 710.005571,57.548488 C715.881671,58.327978 717.838151,60.585578 718.615671,67.483748 C719.006261,70.949018 719.798831,72.521298 722.011031,74.219328 C733.586441,83.104298 738.861971,88.518448 740.945061,93.650848 C743.211051,99.233868 745.113051,100.934418 749.091481,100.934418 C754.136101,100.934418 755.047171,105.062258 752.223601,115.125378 C750.606811,120.887598 750.616211,121.006688 753.136591,126.690978 C757.195771,135.845788 758.263101,140.307508 756.971331,142.721208 C754.892831,146.604908 755.679311,148.524588 760.607221,151.595888 C764.637161,154.107538 766.228871,156.151968 771.107221,165.082328 C774.269721,170.871638 776.857221,176.558808 776.857221,177.720488 C776.857221,178.952808 775.422121,180.927238 773.412061,182.460388 C771.115971,184.211698 769.424771,186.720328 768.341501,189.981758 C767.413591,192.775418 765.439371,195.949678 763.740881,197.378858 C759.928681,200.586608 749.120291,203.930198 742.501881,203.949158 C735.886791,203.968158 732.779381,205.594728 730.619281,210.169258 C729.179041,213.219318 728.036251,214.100738 723.947851,215.314868 C716.941881,217.395418 715.118681,218.532448 708.295141,225.076628 C704.727571,228.498148 700.458031,231.516798 697.91941,232.412478 C692.35941,234.374158 692.17241,234.356898 689.56177,231.640958 L689.56177,231.640958 Z" id="Zrich"></path>
            <path d="M876.357191,207.542108 C868.705391,205.134598 868.186691,204.564958 867.414591,197.720548 C867.024691,194.263178 865.815491,189.992168 864.727591,188.229408 C861.872391,183.602868 863.030391,178.617618 868.033291,173.998108 C870.882991,171.366838 872.395491,168.807918 873.694091,164.420938 L875.466191,158.434418 L879.911691,158.147658 C883.778491,157.898228 885.393291,158.516588 892.316291,162.897658 C896.693791,165.667878 900.61969,167.934418 901.04059,167.934418 C901.46149,167.934418 902.52779,169.330628 903.41029,171.037108 C904.65159,173.437448 904.77689,174.739068 903.96379,176.787108 C903.38579,178.243128 902.17649,182.809418 901.27639,186.934418 C899.386991,195.593758 895.691291,203.054788 891.576491,206.517138 C888.307891,209.267548 882.981391,209.626268 876.357191,207.542108 L876.357191,207.542108 Z" id="path3972-path"></path>
            <path d="M857.292191,199.866148 C853.653191,196.958958 852.924191,196.760958 847.601491,197.234128 C843.110091,197.633408 841.381491,197.369788 839.731841,196.033978 C837.696751,194.386058 837.661511,193.993898 838.787901,185.529638 C839.832131,177.682658 839.774311,176.451988 838.250181,174.085768 C837.310901,172.627528 835.938231,171.074558 835.199811,170.634728 C832.451011,168.997448 833.899211,165.129028 840.002091,157.806908 C843.381791,153.752038 847.094291,149.898818 848.252091,149.244208 C850.670691,147.876748 868.142591,148.583648 871.232891,150.173998 C872.852591,151.007548 873.020791,151.885908 872.465491,156.610628 C871.574591,164.190728 869.409891,168.904908 865.168791,172.501018 C861.952791,175.227938 861.499091,176.207528 861.073091,181.344528 C860.684691,186.028568 861.009091,187.859368 862.786391,191.022108 C865.340591,195.566698 865.343891,202.231168 862.796391,202.713808 C861.935591,202.876618 859.460591,201.595168 857.296391,199.866148 L857.292191,199.866148 Z" id="path3972-path"></path>
            <path d="M469.95315,168.220778 C469.18092,167.915128 466.98062,166.600648 465.06361,165.299728 C461.98033,163.207358 460.43781,162.934418 451.69623,162.934418 C442.20606,162.934418 441.77052,162.838218 440.70887,160.508158 C439.01749,156.795988 440.45641,153.212528 444.71888,150.521748 C446.822,149.194108 449.05871,146.831328 449.68935,145.271138 C451.69091,140.319228 457.85098,119.506018 457.85416,117.684418 C457.85716,115.690608 454.87409,115.317548 453.10148,117.090158 C452.44701,117.744628 449.47581,118.165178 446.25092,118.059798 C439.5672,117.841388 431.25632,120.320188 429.8477,122.952208 C429.30294,123.970108 428.85722,125.700378 428.85722,126.797248 C428.85722,131.897578 423.24505,132.965308 416.63858,129.121868 C413.49414,127.292538 412.85975,126.090048 411.79156,119.934418 C411.36208,117.459418 410.04587,112.773208 408.86666,109.520608 C406.55656,103.148748 406.81833,99.319938 409.6079,98.678668 C411.77706,98.180028 420.47918,101.282318 422.79817,103.380978 C425.21605,105.569128 428.02738,105.319378 433.45324,102.434418 C436.03926,101.059418 438.72554,99.934418 439.42275,99.934418 C440.11996,99.934418 441.51544,98.802418 442.52381,97.418868 L444.35722,94.903318 L453.63787,96.887068 C459.56143,98.153238 465.20302,100.148378 469.23397,102.402618 C476.77723,106.621048 478.58628,106.777248 479.8994,103.323488 C480.8341,100.865028 481.16843,100.752228 485.62464,101.391918 C488.22756,101.765568 492.22789,102.960378 494.51425,104.047048 C498.69086,106.032128 499.40521,107.048298 503.7509,117.186388 C505.4973,121.260578 506.18982,121.934418 508.63055,121.934418 C512.88032,121.934418 514.90079,123.972938 516.40728,129.780628 C517.87923,135.455128 517.48535,137.717388 514.67307,139.741118 C513.67435,140.459808 512.85722,141.713138 512.85722,142.526308 C512.85722,145.932068 509.56304,148.869258 503.46882,150.897278 C498.97473,152.392818 496.02366,154.208048 492.88157,157.409608 C490.42572,159.911928 487.17976,162.132358 485.44121,162.499228 C483.74501,162.857168 480.36757,164.451518 477.93578,166.042228 C473.46963,168.963658 472.49916,169.228508 469.95315,168.220778 L469.95315,168.220778 Z" id="path3972-path"></path>
            <path d="M893.343191,159.951088 C889.161791,157.194228 885.660791,155.745788 881.854491,155.198008 C877.934291,154.633828 876.288291,153.934188 876.057091,152.733758 C875.709491,150.928748 876.510891,150.086868 884.711591,143.642228 C887.656491,141.327928 891.335491,138.390048 892.887191,137.113598 C894.859791,135.490918 897.911791,134.490378 903.03279,133.787538 C915.70089,132.048898 916.10559,131.736688 917.32219,122.766188 C918.01549,117.653388 918.91229,116.556198 923.24619,115.518368 C925.58059,114.959358 926.68439,115.352738 928.99619,117.567578 C932.57439,120.995688 932.54969,122.445688 928.82939,127.362558 C925.20609,132.151238 925.12009,133.893358 928.35719,136.934418 C931.40989,139.802268 931.55699,142.990738 928.75369,145.529428 C927.08379,147.041638 924.76429,147.506578 917.50369,147.784388 C907.11329,148.181958 905.44129,148.927428 907.04499,152.447238 C907.94479,154.422008 907.64939,155.554258 905.23899,159.369508 C903.65399,161.878238 901.68219,163.927568 900.85719,163.923574 C900.032191,163.919568 896.650891,162.131958 893.343191,159.951088 Z" id="path3972-path"></path>
            <path d="M398.56139,155.305258 C398.21536,154.959218 394.44929,154.335078 390.19235,153.918278 C383.02222,153.216238 382.21203,152.898088 379.18616,149.596288 C374.42823,144.404498 374.10117,141.863318 377.5332,136.753158 C379.11157,134.403008 382.31406,131.196668 384.64983,129.627938 C387.0414,128.021738 389.51031,125.307108 390.30131,123.413978 C391.8863,119.620578 397.27162,116.371508 403.67004,115.348358 C407.04842,114.808138 407.83577,115.025818 408.7618,116.756128 C409.36428,117.881868 409.85722,120.571158 409.85722,122.732308 C409.85722,127.727578 413.1393,131.203078 420.01238,133.485958 C428.77726,136.397178 428.06596,137.712018 411.0959,149.967998 C403.44987,155.490048 400.1509,156.894768 398.56139,155.305258 Z" id="path3972-path"></path>
            <path d="M766.187791,152.153088 C764.444611,150.657818 762.033611,148.748498 760.830021,147.910138 C758.816711,146.507778 758.736031,146.067878 759.821331,142.410138 C760.903741,138.762138 760.734741,137.816198 757.771061,130.934418 C754.194021,122.628398 753.997021,120.480958 755.919631,110.752368 C757.669541,101.897668 756.613161,99.387238 750.660251,98.253758 C746.726181,97.504668 746.135591,96.979858 743.772421,92.133148 C742.350781,89.217448 738.775731,84.389638 735.827861,81.404698 L730.468101,75.977518 L732.513651,73.705968 C733.638701,72.456618 734.803681,70.759418 735.102501,69.934418 C735.401311,69.109418 736.573061,66.106788 737.706381,63.261898 L739.766951,58.089378 L737.645881,55.392868 C735.891051,53.161968 735.731561,52.365278 736.722221,50.778988 C737.680951,49.243798 737.614421,48.425858 736.388431,46.675508 C735.546261,45.473148 734.857221,43.187728 734.857221,41.596778 C734.857221,39.534708 733.787161,37.724028 731.130451,35.290568 C728.076341,32.493118 727.598411,31.566298 728.482581,30.155698 C729.963501,27.793028 733.643711,27.431218 735.853511,29.431058 C736.860761,30.342608 740.311151,31.871358 743.521041,32.828288 L749.357221,34.568158 L748.997151,42.266198 C748.780351,46.901258 749.071951,50.488188 749.729941,51.281058 C750.331021,52.005308 753.275371,53.431528 756.272961,54.450438 L761.723111,56.303008 L769.040171,53.493748 C773.064551,51.948658 777.375841,50.051348 778.620811,49.277498 C782.571071,46.822108 793.175841,43.960688 798.375091,43.947318 C802.091771,43.937318 804.345091,44.581408 807.064751,46.429468 C809.500041,48.084288 813.198381,49.273168 818.046891,49.959818 C822.067571,50.529228 827.023451,51.443078 829.059951,51.990578 C831.096451,52.538088 836.316471,52.898608 840.659991,52.791738 C848.507291,52.598658 848.626291,52.634108 859.457291,58.393058 C865.452191,61.580658 875.082191,67.016168 880.857191,70.471968 C886.632191,73.927778 893.644091,78.033068 896.439091,79.594838 C899.234191,81.156608 906.99689,85.728948 913.68959,89.755588 L925.85809,97.076758 L925.26809,101.255588 C923.80419,111.624338 921.99549,113.934418 915.34089,113.934418 C910.94239,113.934418 897.460991,109.450198 893.528091,106.678978 C889.931091,104.144488 886.708791,105.376748 883.729591,110.426108 C882.591191,112.355678 881.308591,113.934418 880.879591,113.934418 C880.450491,113.934418 877.127891,110.784418 873.495991,106.934418 C869.864091,103.084418 866.357591,99.934418 865.703591,99.934418 C863.309191,99.934418 860.771891,103.421488 859.208791,108.860428 C857.005391,116.527318 855.117591,119.936188 853.081491,119.924648 C852.133191,119.919648 848.949991,118.794278 846.007891,117.424648 C843.065791,116.055018 839.172991,114.934418 837.357221,114.934418 C835.541451,114.934418 831.648631,113.813818 828.706521,112.444188 C821.619961,109.145218 818.406781,109.244708 814.253071,112.891718 L810.884891,115.849018 L806.621051,113.913678 C799.922411,110.873188 791.581041,111.748138 787.053501,115.966178 C784.188321,118.635498 784.277241,121.616628 787.357221,126.149228 C790.100291,130.186018 790.535971,133.156348 788.607221,134.671438 C787.919721,135.211498 785.198501,136.460838 782.560051,137.447758 C777.387281,139.382658 776.441511,140.556558 773.366411,148.859008 C772.261351,151.842528 770.907221,154.415928 770.357221,154.577678 C769.807221,154.739428 767.930981,153.648358 766.187791,152.153088 L766.187791,152.153088 Z" id="path3972-path"></path>
            <path d="M422.35722,99.605788 C418.2258,97.234638 418.12521,96.903708 419.67616,90.785078 C420.48739,87.584708 425.75044,79.601048 428.24114,77.792628 C429.69978,76.733568 435.13475,78.757398 437.68758,81.310228 C441.82039,85.443038 441.56082,97.934418 437.34213,97.934418 C436.48161,97.934418 434.0134,98.834418 431.85722,99.934418 C427.03037,102.396888 427.23253,102.403888 422.35722,99.605788 L422.35722,99.605788 Z" id="path3972-path"></path>
            <path d="M674.85722,63.702008 C674.85722,58.257518 674.39139,52.932518 673.82204,51.868678 C671.91197,48.299678 665.34077,49.781748 661.29708,54.693548 L659.23693,57.195968 L654.76199,55.216498 C652.30078,54.127778 647.82784,52.668288 644.82214,51.973168 C637.44701,50.267558 635.14409,48.632898 633.93202,44.243138 C632.79646,40.130478 632.16274,41.498488 641.99416,26.839368 C649.68346,15.374238 650.9755,14.182838 656.58615,13.383898 C663.31737,12.425398 667.34061,10.318628 670.0319,6.343048 C671.75588,3.796385 673.74221,2.467745 677.71277,1.205355 C682.88096,-0.437805 683.1171,-0.430655 684.46277,1.409655 C685.22972,2.458515 685.85722,4.326375 685.85722,5.560445 C685.85722,6.794518 686.30643,8.985728 686.85546,10.429788 C687.72369,12.713418 688.34231,13.014928 691.60546,12.744888 C695.09025,12.456508 695.3808,12.185988 695.68857,8.943158 C695.99436,5.721295 697.19355,3.987725 699.14276,3.949725 C699.5748,3.941725 700.768461,5.894445 701.795331,8.290048 C703.616771,12.539278 705.296821,13.918588 708.689011,13.949728 C712.180261,13.981728 713.158311,15.661058 713.428601,22.087508 C713.575431,25.578308 714.069431,30.886358 714.526391,33.883178 L715.357221,39.331928 L722.418911,42.383178 C726.302841,44.061358 730.526451,46.130178 731.804701,46.980558 C733.883331,48.363398 733.986221,48.754988 732.778911,50.688208 C731.587031,52.596698 731.688201,53.125598 733.643121,55.206518 C736.465931,58.211258 736.367521,60.153908 733.049021,66.934418 C730.725491,71.681948 729.925721,72.476308 727.203281,72.740608 C723.433851,73.106558 720.859281,70.155358 720.853481,65.461908 C720.847481,60.439678 717.544281,56.137668 713.154921,55.434888 C706.665861,54.395918 706.458531,54.180648 701.597481,43.434418 C698.73733,37.111538 696.70427,36.743688 690.5577,41.436948 C685.56213,45.251348 684.74416,47.876638 686.83654,53.380028 C687.68283,55.605928 687.41114,56.316448 684.83654,58.610428 C682.49772,60.694328 681.85722,62.100078 681.85722,65.149378 C681.85722,71.474998 678.11663,76.860488 675.52389,74.267748 C675.15722,73.901088 674.85722,69.146498 674.85722,63.702008 Z" id="Schaffhausen"></path>
        </g>
    </g>
</svg>